<svg xmlns="http://www.w3.org/2000/svg" viewBox="0 0 71.53 53.57"><defs><style>.cls-1{fill:#fff;}</style></defs><title>bulk-in-notification-icon-white</title><g id="Layer_2" data-name="Layer 2"><g id="Layer_1-2" data-name="Layer 1"><path class="cls-1" d="M53.26,16.9a3,3,0,0,0,1.5-.4L68.94,8.31a3,3,0,1,0-3-5.19L51.76,11.3a3,3,0,0,0,1.5,5.6Z"/><path class="cls-1" d="M68.94,45.15,54.76,37a3,3,0,0,0-3,5.2l14.18,8.19a3,3,0,1,0,3-5.2Z"/><path class="cls-1" d="M68.53,23.73H52.16a3,3,0,0,0,0,6H68.53a3,3,0,0,0,0-6Z"/><path class="cls-1" d="M41.35.42,36.83,3.08l-17.2,10.1a5.6,5.6,0,0,1-2.85.78H5.62A5.62,5.62,0,0,0,0,19.58V33.89a5.63,5.63,0,0,0,5.69,5.62,2.63,2.63,0,0,1,2.45,1.78l3.13,8.58a5.61,5.61,0,0,0,7.2,3.36l1.66-.61a5.61,5.61,0,0,0,3.36-7.2l-.38-1a1,1,0,0,1,1.45-1.2l12.27,7.21L41.35,53a3,3,0,0,0,4.52-2.58V3A3,3,0,0,0,41.35.42Zm-24.57,47-2.4-6.58.94-.34,2.4,6.58Zm23.09-4a1,1,0,0,1-1.51.86l-8.2-4.82-8.89-5.23a5.64,5.64,0,0,0-2.1-.72h0a4.73,4.73,0,0,0-.75-.05H8a2,2,0,0,1-2-2V22a2,2,0,0,1,2-2H18.41a5.6,5.6,0,0,0,2.85-.78L30.15,14l8.21-4.83a1,1,0,0,1,1.51.87Z"/></g></g></svg>