<?xml version="1.0" encoding="utf-8"?>
<!-- Generator: Adobe Illustrator 22.0.1, SVG Export Plug-In . SVG Version: 6.00 Build 0)  -->
<svg version="1.1" id="Layer_1" xmlns="http://www.w3.org/2000/svg" xmlns:xlink="http://www.w3.org/1999/xlink" x="0px" y="0px"
	 viewBox="0 0 75 75" style="enable-background:new 0 0 75 75;" xml:space="preserve">
<style type="text/css">
	.st0{display:none;}
	.st1{display:inline;}
	.st2{display:inline;fill:#00DF06;}
</style>
<g>
	<g class="st0">
		<rect x="-0.5" y="-0.5" class="st1" width="76" height="76"/>
		<path class="st2" d="M75,0v75H0V15.5V0H75 M76-1h-1H0h-1v1v15.5V75v1h1h75h1v-1V0V-1L76-1z"/>
	</g>
	<g>
		<polygon points="48.8,37.5 16.7,5.4 12.4,9.6 40.3,37.5 12.4,65.4 16.7,69.6 		"/>
		<path d="M62.6,60V15c0-1.7-1.3-3-3-3s-3,1.3-3,3v45c0,1.7,1.3,3,3,3C61.2,63,62.6,61.7,62.6,60z"/>
	</g>
</g>
</svg>
