<svg xmlns="http://www.w3.org/2000/svg" viewBox="0 0 76.26 75.42"><title>in-assets-reference-icon-black</title><g id="Layer_2" data-name="Layer 2"><g id="Layer_1-2" data-name="Layer 1"><path d="M64.87,35.71A32.51,32.51,0,0,0,32.52,0V7A25.49,25.49,0,0,1,57.85,29.71a24.58,24.58,0,0,1-.05,6A25.5,25.5,0,1,1,32.51,7V0h0A32.52,32.52,0,1,0,53.74,57.13c.69-.58,1.35-1.21,2-1.87s1.25-1.33,1.82-2A32.36,32.36,0,0,0,64.87,35.71Z"/><path d="M75.21,69.41,63.09,57.56a3.46,3.46,0,0,0-2.44-1,3.65,3.65,0,0,0-.74.08,3.5,3.5,0,0,0-1.71,5.92L70.31,74.42a3.53,3.53,0,0,0,2.45,1,3.51,3.51,0,0,0,2.45-6Z"/><path d="M19,16a3,3,0,0,0-3,3V46a3,3,0,0,0,3,3H46a3,3,0,0,0,3-3V19a3,3,0,0,0-3-3H19Zm11.5,15h4a1,1,0,0,0,1-1V23a1,1,0,0,1,1-1H42a1,1,0,0,1,1,1V42a1,1,0,0,1-1,1H23a1,1,0,0,1-1-1V23a1,1,0,0,1,1-1h5.5a1,1,0,0,1,1,1v7A1,1,0,0,0,30.51,31Z"/></g></g></svg>