<svg xmlns="http://www.w3.org/2000/svg" viewBox="0 0 60 75"><defs><style>.cls-1{fill:#fff;}</style></defs><title>in-bank-icno-white</title><g id="Layer_2" data-name="Layer 2"><g id="Layer_1-2" data-name="Layer 1"><path class="cls-1" d="M3,22.4H57a3,3,0,0,0,1.58-5.55L32.46.7a4.69,4.69,0,0,0-4.92,0L1.46,16.85A3,3,0,0,0,3,22.4Zm12-6.93L28.31,7.28a3.22,3.22,0,0,1,3.38,0l13.23,8.19a.5.5,0,0,1-.26.93H15.34A.5.5,0,0,1,15.08,15.47Z"/><path class="cls-1" d="M33.67,29.92v32a3.27,3.27,0,0,0,2.84,3.41,3.1,3.1,0,0,0,3.16-3.22v-32a3.27,3.27,0,0,0-2.84-3.41A3.1,3.1,0,0,0,33.67,29.92Z"/><path class="cls-1" d="M20.33,29.92v32a3.27,3.27,0,0,0,2.84,3.41,3.1,3.1,0,0,0,3.16-3.22v-32a3.27,3.27,0,0,0-2.84-3.41A3.1,3.1,0,0,0,20.33,29.92Z"/><path class="cls-1" d="M7,29.92v32A3.27,3.27,0,0,0,9.84,65.3,3.1,3.1,0,0,0,13,62.08v-32a3.27,3.27,0,0,0-2.84-3.41A3.1,3.1,0,0,0,7,29.92Z"/><path class="cls-1" d="M47,29.92v32a3.27,3.27,0,0,0,2.84,3.41A3.1,3.1,0,0,0,53,62.08v-32a3.27,3.27,0,0,0-2.84-3.41A3.1,3.1,0,0,0,47,29.92Z"/><path class="cls-1" d="M57.61,69H2.52A2.78,2.78,0,0,0,0,71.84C-.07,73.57,1,75,2.39,75H57.48A2.78,2.78,0,0,0,60,72.16C60.07,70.43,59,69,57.61,69Z"/></g></g></svg>