<svg xmlns="http://www.w3.org/2000/svg" viewBox="0 0 75 75"><title>in-calender-icon-black</title><g id="Layer_2" data-name="Layer 2"><g id="Layer_1-2" data-name="Layer 1"><path d="M67.56,5V2a2,2,0,0,0-2-2h-2a2,2,0,0,0-2,2V5a2,2,0,0,1-2,2H15.44a2,2,0,0,1-2-2V2a2,2,0,0,0-2-2h-2a2,2,0,0,0-2,2V5a2,2,0,0,1-2,2H3a3,3,0,0,0-3,3V72a3,3,0,0,0,3,3H72a3,3,0,0,0,3-3V10a3,3,0,0,0-3-3H69.56A2,2,0,0,1,67.56,5ZM51.75,15v5.5a2,2,0,0,1-2,2H42.5a2,2,0,0,1-2-2V15a2,2,0,0,1,2-2h7.25A2,2,0,0,1,51.75,15ZM34.5,46v5.5a2,2,0,0,1-2,2H25.25a2,2,0,0,1-2-2V46a2,2,0,0,1,2-2H32.5A2,2,0,0,1,34.5,46ZM23.25,36V30.5a2,2,0,0,1,2-2H32.5a2,2,0,0,1,2,2V36a2,2,0,0,1-2,2H25.25A2,2,0,0,1,23.25,36ZM42.5,44h7.25a2,2,0,0,1,2,2v5.5a2,2,0,0,1-2,2H42.5a2,2,0,0,1-2-2V46A2,2,0,0,1,42.5,44Zm-2-8V30.5a2,2,0,0,1,2-2h7.25a2,2,0,0,1,2,2V36a2,2,0,0,1-2,2H42.5A2,2,0,0,1,40.5,36Zm-6-21v5.5a2,2,0,0,1-2,2H25.25a2,2,0,0,1-2-2V15a2,2,0,0,1,2-2H32.5A2,2,0,0,1,34.5,15ZM8,13h7.25a2,2,0,0,1,2,2v5.5a2,2,0,0,1-2,2H8a2,2,0,0,1-2-2V15A2,2,0,0,1,8,13ZM8,28.5h7.25a2,2,0,0,1,2,2V36a2,2,0,0,1-2,2H8a2,2,0,0,1-2-2V30.5A2,2,0,0,1,8,28.5ZM8,44h7.25a2,2,0,0,1,2,2v5.5a2,2,0,0,1-2,2H8a2,2,0,0,1-2-2V46A2,2,0,0,1,8,44ZM6,67V61.5a2,2,0,0,1,2-2h7.25a2,2,0,0,1,2,2V67a2,2,0,0,1-2,2H8A2,2,0,0,1,6,67Zm17.25,0V61.5a2,2,0,0,1,2-2H32.5a2,2,0,0,1,2,2V67a2,2,0,0,1-2,2H25.25A2,2,0,0,1,23.25,67ZM40.5,67V61.5a2,2,0,0,1,2-2h7.25a2,2,0,0,1,2,2V67a2,2,0,0,1-2,2H42.5A2,2,0,0,1,40.5,67ZM67,69H59.75a2,2,0,0,1-2-2V61.5a2,2,0,0,1,2-2H67a2,2,0,0,1,2,2V67A2,2,0,0,1,67,69Zm0-15.5H59.75a2,2,0,0,1-2-2V46a2,2,0,0,1,2-2H67a2,2,0,0,1,2,2v5.5A2,2,0,0,1,67,53.5ZM67,38H59.75a2,2,0,0,1-2-2V30.5a2,2,0,0,1,2-2H67a2,2,0,0,1,2,2V36A2,2,0,0,1,67,38ZM57.75,20.5V15a2,2,0,0,1,2-2H67a2,2,0,0,1,2,2v5.5a2,2,0,0,1-2,2H59.75A2,2,0,0,1,57.75,20.5Z"/></g></g></svg>