<svg xmlns="http://www.w3.org/2000/svg" viewBox="0 0 55.01 54.97"><defs><style>.cls-1{fill:#fff;}</style></defs><title>in-close-icon-white</title><g id="Layer_2" data-name="Layer 2"><g id="Layer_1-2" data-name="Layer 1"><path class="cls-1" d="M49.77,1,29.62,21.1a3,3,0,0,1-4.24,0L5.24,1A3.1,3.1,0,0,0,1,.73,3,3,0,0,0,.88,5.08L21.14,25.34a3,3,0,0,1,0,4.25L1,49.73A3.1,3.1,0,0,0,.77,54a3,3,0,0,0,4.35.12L25.38,33.83a3,3,0,0,1,4.24,0L49.77,54A3.1,3.1,0,0,0,54,54.2a3,3,0,0,0,.12-4.35L33.87,29.59a3,3,0,0,1,0-4.25L54.13,5.08A3,3,0,0,0,54,.73,3.1,3.1,0,0,0,49.77,1Z"/></g></g></svg>