<svg xmlns="http://www.w3.org/2000/svg" viewBox="0 0 75.35 75.35"><defs><style>.cls-1{fill:#fff;}</style></defs><title>in-charts-icon-white</title><g id="Layer_2" data-name="Layer 2"><g id="Layer_1-2" data-name="Layer 1"><path class="cls-1" d="M72.18,69.35H8a2,2,0,0,1-2-2V3.17A3.12,3.12,0,0,0,3.16,0,3,3,0,0,0,0,3V69.73a5.62,5.62,0,0,0,5.62,5.62H72.35a3,3,0,0,0,3-3.17A3.1,3.1,0,0,0,72.18,69.35Z"/><path class="cls-1" d="M12.93,42.82l16.9,9a3,3,0,0,0,4.22-1.63L40.39,32.7a1,1,0,0,1,1.46-.52l15.84,9.51A3,3,0,0,0,62,40.24l13-32a3,3,0,0,0-1.8-4,3.11,3.11,0,0,0-3.82,1.86L58.21,33.66a1,1,0,0,1-1.44.48l-16-9.6a3,3,0,0,0-4.36,1.55L30,43.77a1,1,0,0,1-1.41.54L15.63,37.46a3,3,0,0,0-4.28,1.81A3.07,3.07,0,0,0,12.93,42.82Z"/></g></g></svg>