<svg xmlns="http://www.w3.org/2000/svg" viewBox="0 0 75 75.04"><defs><style>.cls-1{fill:#fff;}</style></defs><title>in-column-icon-white</title><g id="Layer_2" data-name="Layer 2"><g id="Layer_1-2" data-name="Layer 1"><path class="cls-1" d="M68.37,18.2a3,3,0,0,0-3,3V72a3,3,0,1,0,6,0V21.2A3,3,0,0,0,68.37,18.2Z"/><path class="cls-1" d="M72,0H64.75a3,3,0,0,0,0,6H72a3,3,0,0,0,0-6Z"/><path class="cls-1" d="M47.79,18.2a3,3,0,0,0-3,3V72a3,3,0,0,0,6,0V21.2A3,3,0,0,0,47.79,18.2Z"/><path class="cls-1" d="M51.42,0H44.16a3,3,0,0,0,0,6h7.26a3,3,0,0,0,0-6Z"/><path class="cls-1" d="M27.21,18.2a3,3,0,0,0-3,3V72a3,3,0,0,0,6,0V21.2A3,3,0,0,0,27.21,18.2Z"/><path class="cls-1" d="M30.84,0H23.58a3,3,0,0,0,0,6h7.26a3,3,0,1,0,0-6Z"/><path class="cls-1" d="M6.63,18.2a3,3,0,0,0-3,3V72a3,3,0,0,0,6,0V21.2A3,3,0,0,0,6.63,18.2Z"/><path class="cls-1" d="M10.25,0H3A3,3,0,0,0,3,6h7.25a3,3,0,0,0,0-6Z"/></g></g></svg>