<svg xmlns="http://www.w3.org/2000/svg" viewBox="0 0 75 74.95"><defs><style>.cls-1{fill:#fff;}</style></defs><title>in-category-icon-white</title><g id="Layer_2" data-name="Layer 2"><g id="Layer_1-2" data-name="Layer 1"><path class="cls-1" d="M5.62,33H27.33A5.61,5.61,0,0,0,33,27.33V5.62A5.62,5.62,0,0,0,27.33,0H5.62A5.62,5.62,0,0,0,0,5.62V27.33A5.62,5.62,0,0,0,5.62,33ZM8,6H25a2,2,0,0,1,2,2V25a2,2,0,0,1-2,2H8a2,2,0,0,1-2-2V8A2,2,0,0,1,8,6Z"/><path class="cls-1" d="M42.05,5.62V27.33A5.61,5.61,0,0,0,47.67,33H69.38A5.62,5.62,0,0,0,75,27.33V5.62A5.62,5.62,0,0,0,69.38,0H47.67A5.62,5.62,0,0,0,42.05,5.62ZM67,27h-17a2,2,0,0,1-2-2V8a2,2,0,0,1,2-2H67a2,2,0,0,1,2,2V25A2,2,0,0,1,67,27Z"/><path class="cls-1" d="M5.62,75H27.33A5.61,5.61,0,0,0,33,69.33V47.62A5.62,5.62,0,0,0,27.33,42H5.62A5.62,5.62,0,0,0,0,47.62V69.33A5.62,5.62,0,0,0,5.62,75ZM8,48H25a2,2,0,0,1,2,2V67a2,2,0,0,1-2,2H8a2,2,0,0,1-2-2V50A2,2,0,0,1,8,48Z"/><path class="cls-1" d="M47.67,75H69.38A5.62,5.62,0,0,0,75,69.33V47.62A5.62,5.62,0,0,0,69.38,42H47.67a5.62,5.62,0,0,0-5.62,5.62V69.33A5.61,5.61,0,0,0,47.67,75ZM50.05,48H67a2,2,0,0,1,2,2V67a2,2,0,0,1-2,2h-17a2,2,0,0,1-2-2V50A2,2,0,0,1,50.05,48Z"/></g></g></svg>