<svg xmlns="http://www.w3.org/2000/svg" viewBox="0 0 74.7 74.47"><defs><style>.cls-1{fill:#fff;}</style></defs><title>in-closed-icon-white</title><g id="Layer_2" data-name="Layer 2"><g id="Layer_1-2" data-name="Layer 1"><path class="cls-1" d="M74.26,20.06A3,3,0,0,0,70,19.24L34.65,44.58a2,2,0,0,1-2.77-.44L21.22,29.67a3,3,0,0,0-4.83,3.56L28.44,49.59a5.63,5.63,0,0,0,7.8,1.23l37.1-26.61A3.12,3.12,0,0,0,74.26,20.06Z"/><path class="cls-1" d="M60.93,46.69a3.11,3.11,0,0,0-2.84,3.16V66.47a2,2,0,0,1-2,2H8a2,2,0,0,1-2-2V8A2,2,0,0,1,8,6H56.09a2,2,0,0,1,2,2v7.45a3,3,0,0,0,3.17,3,3.1,3.1,0,0,0,2.83-3.16V5.62A5.62,5.62,0,0,0,58.47,0H5.62A5.62,5.62,0,0,0,0,5.62V68.85a5.62,5.62,0,0,0,5.62,5.62H58.47a5.62,5.62,0,0,0,5.62-5.62V49.68A3,3,0,0,0,60.93,46.69Z"/></g></g></svg>