<svg xmlns="http://www.w3.org/2000/svg" viewBox="0 0 75.24 48.25"><title>in-client-icon-black</title><g id="Layer_2" data-name="Layer 2"><g id="Layer_1-2" data-name="Layer 1"><path d="M72.24,3.16H59.48a3,3,0,0,0-2.84,2,1,1,0,0,1-1.22.63L36.28.15a3.66,3.66,0,0,0-2.1,0L24.73,3,19.17,4.66a1,1,0,0,1-1.09-.37,3,3,0,0,0-2.33-1.13H3a3,3,0,0,0-3,3v31a3,3,0,0,0,3,3H15.75a3,3,0,0,0,1.9-.68,1,1,0,0,1,1.34.06l7.09,7.09a5.65,5.65,0,0,0,6.05,1.25l23.36-9.27.19-.07,1-.32a3,3,0,0,0,2.8,1.94H72.24a3,3,0,0,0,3-3v-31A3,3,0,0,0,72.24,3.16Zm-60.49,31H7a1,1,0,0,1-1-1v-23a1,1,0,0,1,1-1h4.75a1,1,0,0,1,1,1v23A1,1,0,0,1,11.75,34.14Zm33.12,2.21L32,41.46a3,3,0,0,1-3.22-.66l-8.53-8.53a5,5,0,0,1-1.47-3.52V11.56a.72.72,0,0,1,.51-.67,1,1,0,0,1,1.29,1,7.78,7.78,0,0,0,1.18,5.22l1.09,1.53a7,7,0,0,0,9.8,1.63h0a1,1,0,0,1,1.36.2L45.29,34.8A1,1,0,0,1,44.87,36.35Zm11.6-6.58a3,3,0,0,1-2.08,2.86l-.55.17a3,3,0,0,1-3.27-1L37.5,15.28a5,5,0,0,0-6.82-1L29.1,15.43a1,1,0,0,1-1.39-.23l-.59-.82a1,1,0,0,1,0-1.16l3.2-4.57a5.62,5.62,0,0,1,6.2-2.17L52.9,11.34a5,5,0,0,1,3.58,4.79Zm12.77,3.37a1,1,0,0,1-1,1H63.48a1,1,0,0,1-1-1v-23a1,1,0,0,1,1-1h4.76a1,1,0,0,1,1,1Z"/></g></g></svg>