<svg xmlns="http://www.w3.org/2000/svg" viewBox="0 0 75 75"><defs><style>.cls-1{fill:#fff;}</style></defs><title>in-dashboard-icon-white</title><g id="Layer_2" data-name="Layer 2"><g id="Layer_1-2" data-name="Layer 1"><path class="cls-1" d="M69.42,21.62,40.74,1.05a5.52,5.52,0,0,0-6.48,0L5.58,21.62l-3.2,2.3A5.75,5.75,0,0,0,0,28.59V69.28A5.67,5.67,0,0,0,5.62,75H23.88a5.67,5.67,0,0,0,5.62-5.72V52.48a2,2,0,0,1,2-2h12a2,2,0,0,1,2,2v16.8A5.67,5.67,0,0,0,51.12,75H69.38A5.67,5.67,0,0,0,75,69.28V28.59a5.75,5.75,0,0,0-2.38-4.67ZM67,68.59H53.5a2,2,0,0,1-2-2V49.76A5.67,5.67,0,0,0,45.88,44H29.12a5.67,5.67,0,0,0-5.62,5.72v16.8a2,2,0,0,1-2,2H8a2,2,0,0,1-2-2V30.09a2.07,2.07,0,0,1,.85-1.67L7.41,28l8.93-6.41,20-14.35a2,2,0,0,1,2.3,0l20,14.35L67.59,28l.56.39A2.07,2.07,0,0,1,69,30.09V66.56A2,2,0,0,1,67,68.59Z"/></g></g></svg>