
<svg width="16px" height="7px" viewBox="0 0 16 7" version="1.1" xmlns="http://www.w3.org/2000/svg" xmlns:xlink="http://www.w3.org/1999/xlink">
    <g id="Page-1" stroke="none" stroke-width="1" fill="none" fill-rule="evenodd">
        <g id="Facility---new-workorder-Copy-7" transform="translate(-1350.000000, -2291.000000)" stroke="#979797">
            <g id="Card---Asset-table-Copy" transform="translate(305.000000, 1373.000000)">
                <g id="Card">
                    <g id="table" transform="translate(-1.000000, 852.000000)">
                        <g id="row" transform="translate(0.000000, 48.000000)">
                            <path d="M1046.5,18.5 L1046.5,20.4166667 L1048.41667,20.4166667 L1048.41667,18.5 L1046.5,18.5 Z M1048.41667,20.4166667 L1048.91667,20.4166667 L1048.41667,20.9166667 L1048.41667,20.4166667 Z M1050.58333,18.5 L1050.58333,20.4166667 L1052.5,20.4166667 L1052.5,18.5 L1050.58333,18.5 Z M1054.66667,18.5 L1054.66667,20.4166667 L1056.58333,20.4166667 L1056.58333,18.5 L1054.66667,18.5 Z M1046.5,22.5833333 L1046.5,24.5 L1048.41667,24.5 L1048.41667,22.5833333 L1046.5,22.5833333 Z M1050.58333,22.5833333 L1050.58333,24.5 L1052.5,24.5 L1052.5,22.5833333 L1050.58333,22.5833333 Z M1054.66667,22.5833333 L1054.66667,24.5 L1056.58333,24.5 L1056.58333,22.5833333 L1054.66667,22.5833333 Z M1058.66667,18.5 L1058.66667,20.4166667 L1060.58333,20.4166667 L1060.58333,18.5 L1058.66667,18.5 Z M1058.66667,22.5833333 L1058.66667,24.5 L1060.58333,24.5 L1060.58333,22.5833333 L1058.66667,22.5833333 Z" id="Combined-Shape"></path>
                        </g>
                    </g>
                </g>
            </g>
        </g>
    </g>
</svg>