<?xml version="1.0" encoding="utf-8"?>
<!-- Generator: Adobe Illustrator 22.0.0, SVG Export Plug-In . SVG Version: 6.00 Build 0)  -->
<svg version="1.1" xmlns="http://www.w3.org/2000/svg" xmlns:xlink="http://www.w3.org/1999/xlink" x="0px" y="0px"
	 viewBox="0 0 75 75" style="enable-background:new 0 0 75 75;" xml:space="preserve">
<style type="text/css">
	.st0{fill-rule:evenodd;clip-rule:evenodd;fill:none;stroke:#000000;stroke-width:6;stroke-linecap:round;stroke-miterlimit:10;}
</style>
<g id="Layer_1">
</g>
<g id="Layer_1_copy">
	<path d="M52.7,35.3c-1.3-1-3.2-0.7-4.2,0.7L41,46.3V3c0-1.7-1.3-3-3-3c-1.7,0-3,1.3-3,3v43.3l-7.5-10.3c-1-1.3-2.9-1.6-4.2-0.7
		c-1.3,1-1.6,2.8-0.7,4.2l12.9,17.8c0,0,0.1,0.1,0.1,0.1c0.1,0.1,0.2,0.2,0.3,0.3c0.1,0.1,0.1,0.1,0.2,0.2c0,0,0.1,0.1,0.1,0.1
		c0.1,0.1,0.3,0.2,0.4,0.3c0,0,0,0,0,0c0.2,0.1,0.4,0.2,0.6,0.2c0,0,0.1,0,0.1,0c0.2,0,0.4,0.1,0.6,0.1c0,0,0,0,0,0s0,0,0,0
		c0.2,0,0.4,0,0.6-0.1c0,0,0.1,0,0.1,0c0.2,0,0.4-0.1,0.6-0.2c0,0,0,0,0,0c0.1-0.1,0.3-0.2,0.4-0.3c0,0,0.1-0.1,0.1-0.1
		c0.1-0.1,0.1-0.1,0.2-0.2c0.1-0.1,0.2-0.2,0.3-0.3c0,0,0.1-0.1,0.1-0.1l12.9-17.8C54.3,38.1,54,36.2,52.7,35.3z"/>
	<polyline class="st0" points="72,40 72,73 3,73 3,40 	"/>
</g>
</svg>
