<svg xmlns="http://www.w3.org/2000/svg" viewBox="0 0 74.5 74.5"><defs><style>.cls-1{fill:#fff;}</style></defs><title>in-expand stack-icon-white</title><g id="Layer_2" data-name="Layer 2"><g id="Layer_1-2" data-name="Layer 1"><path class="cls-1" d="M71.33,34.25H43.25a3,3,0,0,1-3-3V3.17A3.12,3.12,0,0,0,37.41,0a3,3,0,0,0-3.16,3V31.25a3,3,0,0,1-3,3H3.17A3.12,3.12,0,0,0,0,37.09a3,3,0,0,0,3,3.16H31.25a3,3,0,0,1,3,3V71.33a3.12,3.12,0,0,0,2.84,3.17,3,3,0,0,0,3.16-3V43.25a3,3,0,0,1,3-3H71.5a3,3,0,0,0,3-3.16A3.12,3.12,0,0,0,71.33,34.25Z"/></g></g></svg>