<?xml version="1.0" encoding="utf-8"?>
<!-- Generator: Adobe Illustrator 22.0.1, SVG Export Plug-In . SVG Version: 6.00 Build 0)  -->
<svg version="1.1" id="Layer_1" xmlns="http://www.w3.org/2000/svg" xmlns:xlink="http://www.w3.org/1999/xlink" x="0px" y="0px"
	 viewBox="0 0 75 75" style="enable-background:new 0 0 75 75;" xml:space="preserve">
<style type="text/css">
	.st0{fill:#3FA9F5;}
</style>
<path class="st0" d="M46.9,65.1l-6.6-1.3c-1.1-0.2-2.1-0.8-2.9-1.5L8,32.7c-2.2-2.2-2.2-5.8,0-7.9L24.8,8c2.2-2.2,5.8-2.2,7.9,0
	l29.5,29.5c0.8,0.8,1.3,1.8,1.5,2.9l1.3,6.6l3.6,18.1c0.4,2.1-1.4,3.9-3.5,3.5L46.9,65.1z M27.3,13.9L13.9,27.4
	c-0.8,0.8-0.8,2,0,2.8l27.6,27.6c0.8,0.8,2,0.8,2.8,0l13.4-13.4c0.8-0.8,0.8-2,0-2.8L30.2,13.9C29.4,13.1,28.1,13.1,27.3,13.9z
	 M53.9,60.3l6.5,1.3c0.7,0.1,1.3-0.5,1.2-1.2l-1.3-6.5c-0.2-0.8-1.1-1.1-1.7-0.5l-5.2,5.2C52.8,59.2,53.1,60.1,53.9,60.3z"/>
</svg>
