<svg xmlns="http://www.w3.org/2000/svg" viewBox="0 0 62.34 62.29"><title>in-edit-icon-black</title><g id="Layer_2" data-name="Layer 2"><g id="Layer_1-2" data-name="Layer 1"><path d="M40.59,58.7,34,57.41a5.59,5.59,0,0,1-2.9-1.54L1.65,26.39a5.6,5.6,0,0,1,0-7.94l16.8-16.8a5.6,5.6,0,0,1,7.94,0L55.85,31.1A5.6,5.6,0,0,1,57.39,34l1.31,6.6,3.58,18.12a3,3,0,0,1-3.52,3.52ZM21,7.57,7.57,21a2,2,0,0,0,0,2.83L35.16,51.42a2,2,0,0,0,2.82,0L51.41,38a2,2,0,0,0,0-2.83L23.84,7.57A2,2,0,0,0,21,7.57ZM47.56,53.94l6.51,1.26A1,1,0,0,0,55.24,54L54,47.54A1,1,0,0,0,52.27,47L47,52.25A1,1,0,0,0,47.56,53.94Z"/></g></g></svg>