<?xml version="1.0" encoding="utf-8"?>
<!-- Generator: Adobe Illustrator 22.0.1, SVG Export Plug-In . SVG Version: 6.00 Build 0)  -->
<svg version="1.1" id="Layer_1" xmlns="http://www.w3.org/2000/svg" xmlns:xlink="http://www.w3.org/1999/xlink" x="0px" y="0px"
	 viewBox="0 0 75 75" style="enable-background:new 0 0 75 75;" xml:space="preserve">
<g>
	<path d="M59.1,73.3H15.9c-7.8,0-14.1-6.3-14.1-14.1V15.9c0-7.8,6.3-14.1,14.1-14.1l21.5,0c1.6,0,3.1,1.1,3.4,2.7
		c0.4,2.1-1.2,3.8-3.2,3.8H15.9c-4.2,0-7.6,3.4-7.6,7.6v43.3c0,4.2,3.4,7.6,7.6,7.6h43.3c4.2,0,7.6-3.4,7.6-7.6l0-21.5
		c0-1.6,1.1-3.1,2.7-3.4c2.1-0.4,3.8,1.2,3.8,3.2v21.6C73.3,66.9,66.9,73.3,59.1,73.3z"/>
	<g>
		<g>
			<path d="M69.9,14.9c0.8,0.8,0.8,2.1-0.1,2.9L55.4,30.7c-0.8,0.7-2,0.6-2.8-0.2l0,0c-0.7-0.8-0.6-2,0.2-2.8l9.5-8.4
				c-11,0.4-19,3.6-23.9,9.7c-8.5,10.4-5.2,26-5.2,26.2c0.3,1.6-0.7,3.2-2.3,3.6c-0.2,0-0.4,0.1-0.6,0.1c-1.4,0-2.6-1-2.9-2.3
				c-0.2-0.8-4-18.6,6.4-31.2c6.2-7.5,15.9-11.5,29-11.9l-9.4-9.1c-0.8-0.8-0.8-2,0-2.8l0,0c0.8-0.8,2-0.8,2.8,0L69.9,14.9z"/>
		</g>
	</g>
</g>
</svg>
