<svg xmlns="http://www.w3.org/2000/svg" viewBox="0 0 61.01 75"><defs><style>.cls-1{fill:#fff;}</style></defs><title>in-facility-icon-white</title><g id="Layer_2" data-name="Layer 2"><g id="Layer_1-2" data-name="Layer 1"><path class="cls-1" d="M57.84,69H55.68a2,2,0,0,1-2-2V5.62A5.62,5.62,0,0,0,48.06,0H12.94A5.62,5.62,0,0,0,7.32,5.62V67a2,2,0,0,1-2,2H3.16A3.12,3.12,0,0,0,0,71.84,3,3,0,0,0,3,75H21.91a5.62,5.62,0,0,0,5.62-5.62V56.27a1,1,0,0,1,1-1h3.94a1,1,0,0,1,1,1V69.38A5.62,5.62,0,0,0,39.09,75H58a3,3,0,0,0,3-3.16A3.12,3.12,0,0,0,57.84,69ZM45.68,6a2,2,0,0,1,2,2v6a2,2,0,0,1-2,2H35.5a2,2,0,0,1-2-2V8a2,2,0,0,1,2-2ZM35.5,22H45.68a2,2,0,0,1,2,2v6a2,2,0,0,1-2,2H35.5a2,2,0,0,1-2-2V24A2,2,0,0,1,35.5,22Zm-10,10H15.32a2,2,0,0,1-2-2V24a2,2,0,0,1,2-2H25.5a2,2,0,0,1,2,2v6A2,2,0,0,1,25.5,32ZM15.32,6H25.5a2,2,0,0,1,2,2v6a2,2,0,0,1-2,2H15.32a2,2,0,0,1-2-2V8A2,2,0,0,1,15.32,6ZM45.68,69H41.47a2,2,0,0,1-2-2V51.27a2,2,0,0,0-2-2H23.53a2,2,0,0,0-2,2V67a2,2,0,0,1-2,2H15.32a2,2,0,0,1-2-2V40a2,2,0,0,1,2-2H45.68a2,2,0,0,1,2,2V67A2,2,0,0,1,45.68,69Z"/></g></g></svg>