<svg xmlns="http://www.w3.org/2000/svg" viewBox="0 0 75.02 74.76"><title>in-filter-black</title><g id="Layer_2" data-name="Layer 2"><g id="Layer_1-2" data-name="Layer 1"><path d="M3.2,16h7.85a3,3,0,0,1,3,3v3.77a3.15,3.15,0,0,0,2.86,3.2,3,3,0,0,0,3.14-3V3.2A3.14,3.14,0,0,0,17.18,0a3,3,0,0,0-3.13,3V7a3,3,0,0,1-3,3H3A3,3,0,0,0,0,13.1,3.14,3.14,0,0,0,3.2,16Z"/><path d="M34,16H71.82A3.13,3.13,0,0,0,75,13.1,3,3,0,0,0,72,10H34.21A3.15,3.15,0,0,0,31,12.83,3,3,0,0,0,34,16Z"/><path d="M72,58.79H34.21A3.15,3.15,0,0,0,31,61.66a3,3,0,0,0,3,3.13H71.82A3.13,3.13,0,0,0,75,61.93,3,3,0,0,0,72,58.79Z"/><path d="M16.91,48.83A3.13,3.13,0,0,0,14.05,52v3.77a3,3,0,0,1-3,3H3.2A3.15,3.15,0,0,0,0,61.66a3,3,0,0,0,3,3.13h8.05a3,3,0,0,1,3,3v3.77a3.13,3.13,0,0,0,2.86,3.19,3,3,0,0,0,3.14-3V51.83A3,3,0,0,0,16.91,48.83Z"/><path d="M3,34.38a3,3,0,0,0-3,3.13,3.15,3.15,0,0,0,3.2,2.87h37.6A3.14,3.14,0,0,0,44,37.51a3,3,0,0,0-3-3.13Z"/><path d="M57.84,24.42A3.13,3.13,0,0,0,55,27.61V47.15a3.13,3.13,0,0,0,2.87,3.19,3,3,0,0,0,3.13-3v-4a3,3,0,0,1,3-3h7.86A3.14,3.14,0,0,0,75,37.51a3,3,0,0,0-3-3.13H64a3,3,0,0,1-3-3v-4A3,3,0,0,0,57.84,24.42Z"/></g></g></svg>