<?xml version="1.0" encoding="utf-8"?>
<!-- Generator: Adobe Illustrator 22.0.1, SVG Export Plug-In . SVG Version: 6.00 Build 0)  -->
<svg version="1.1" id="Layer_1" xmlns="http://www.w3.org/2000/svg" xmlns:xlink="http://www.w3.org/1999/xlink" x="0px" y="0px"
	 viewBox="0 0 75 75" style="enable-background:new 0 0 75 75;" xml:space="preserve">
<style type="text/css">
	.st0{fill:#008FF4;}
</style>
<g>
	<path class="st0" d="M3.2,16.1l7.9,0c1.7,0,3,1.3,3,3l0,3.8c0,1.6,1.2,3.1,2.9,3.2c1.7,0.1,3.1-1.3,3.1-3l0-19.7
		c0-1.6-1.2-3.1-2.9-3.2C15.5,0,14,1.4,14,3.1v4c0,1.7-1.3,3-3,3H3c-1.7,0-3.1,1.4-3,3.1C0.1,14.9,1.5,16.1,3.2,16.1z"/>
	<path class="st0" d="M34,16.1l37.8,0c1.6,0,3.1-1.2,3.2-2.9c0.1-1.7-1.3-3.1-3-3.1l-37.8,0c-1.6,0-3.1,1.2-3.2,2.9
		C30.9,14.7,32.3,16.1,34,16.1z"/>
	<path class="st0" d="M72,58.9l-37.8,0c-1.6,0-3.1,1.2-3.2,2.9c-0.1,1.7,1.3,3.1,3,3.1l37.8,0c1.6,0,3.1-1.2,3.2-2.9
		C75.1,60.3,73.7,58.9,72,58.9z"/>
	<path class="st0" d="M16.9,49C15.3,49,14,50.5,14,52.1l0,3.8c0,1.7-1.3,3-3,3l-7.9,0c-1.6,0-3.1,1.2-3.2,2.9
		c-0.1,1.7,1.3,3.1,3,3.1h8c1.7,0,3,1.3,3,3l0,3.8c0,1.6,1.2,3.1,2.9,3.2c1.7,0.1,3.1-1.3,3.1-3V51.9C20,50.2,18.6,48.9,16.9,49z"/>
	<path class="st0" d="M3,34.5c-1.7,0-3.1,1.4-3,3.1c0.1,1.6,1.6,2.9,3.2,2.9h37.6c1.6,0,3.1-1.2,3.2-2.9c0.1-1.7-1.3-3.1-3-3.1H3z"
		/>
	<path class="st0" d="M57.8,24.5c-1.6,0.1-2.9,1.6-2.9,3.2v19.5c0,1.6,1.2,3.1,2.9,3.2c1.7,0.1,3.1-1.3,3.1-3v-4c0-1.7,1.3-3,3-3
		l7.9,0c1.6,0,3.1-1.2,3.2-2.9c0.1-1.7-1.3-3.1-3-3.1h-8c-1.7,0-3-1.3-3-3v-4C61,25.8,59.5,24.5,57.8,24.5z"/>
</g>
</svg>
