<svg xmlns="http://www.w3.org/2000/svg" viewBox="0 0 100.63 77.21"><title>in-facility-reference-icon-black</title><g id="Layer_2" data-name="Layer 2"><g id="Layer_1-2" data-name="Layer 1"><path d="M57.84,71.21H55.68a2,2,0,0,1-2-2v-.32a35.33,35.33,0,0,1-6-1v1.35a2,2,0,0,1-2,2H41.47a2,2,0,0,1-2-2v-4.6a34.94,34.94,0,0,1-6-4.09V71.59a5.62,5.62,0,0,0,5.62,5.62H58a3,3,0,0,0,3-3.16A3.12,3.12,0,0,0,57.84,71.21Z"/><path d="M47.68,16.21a2,2,0,0,1-2,2H40.82a21.41,21.41,0,0,0-3.79,6h8.65a2,2,0,0,1,2,2v6a2,2,0,0,1-2,2H35.45a20.93,20.93,0,0,0,1.34,6h8.89a2,2,0,0,1,2,2V52a21.47,21.47,0,0,0,6,1.81V11.25a20.85,20.85,0,0,0-6,1.82Z"/><path d="M23.53,51.48a2,2,0,0,0-2,2V69.21a2,2,0,0,1-2,2H15.32a2,2,0,0,1-2-2v-27a2,2,0,0,1,2-2h5.86a36.07,36.07,0,0,1-.77-6H15.32a2,2,0,0,1-2-2v-6a2,2,0,0,1,2-2h6a36,36,0,0,1,2-6H15.32a2,2,0,0,1-2-2v-6a2,2,0,0,1,2-2H25.5a2,2,0,0,1,2,2v.62A37.5,37.5,0,0,1,30.79,7a36.39,36.39,0,0,1,5.73-4.76H12.94A5.62,5.62,0,0,0,7.32,7.83V69.21a2,2,0,0,1-2,2H3.16A3.12,3.12,0,0,0,0,74.05a3,3,0,0,0,3,3.16H21.91a5.62,5.62,0,0,0,5.62-5.62V58.48a1,1,0,0,1,1-1h1.71a36.51,36.51,0,0,1-4.58-6Z"/><path d="M89.24,35.71A32.51,32.51,0,0,0,56.89,0V7A25.49,25.49,0,0,1,82.22,29.71a24.58,24.58,0,0,1,0,6A25.48,25.48,0,0,1,56.88,58a24.22,24.22,0,0,1-3.2-.21,25,25,0,0,1-6-1.5A25.54,25.54,0,0,1,35.76,18.21a24.72,24.72,0,0,1,2.89-3.54,25.18,25.18,0,0,1,8.54-5.76A25.75,25.75,0,0,1,56.88,7V0h0A32.58,32.58,0,0,0,45.12,2.21a31.87,31.87,0,0,0-9.82,6h0A2,2,0,0,0,33.53,9.9a32.46,32.46,0,0,0-9.11,24.31,31.25,31.25,0,0,0,.88,6,32.6,32.6,0,0,0,8.84,15.54A31.67,31.67,0,0,0,39.47,60a32.11,32.11,0,0,0,8.21,3.74,32.61,32.61,0,0,0,6,1.16,31,31,0,0,0,3.2.16,32.36,32.36,0,0,0,21.23-7.9c.69-.58,1.35-1.21,2-1.87s1.25-1.33,1.82-2A32.36,32.36,0,0,0,89.24,35.71Z"/><path d="M99.58,69.41,87.46,57.56a3.46,3.46,0,0,0-2.44-1,3.65,3.65,0,0,0-.74.08,3.47,3.47,0,0,0-2.7,2.76h0a3.49,3.49,0,0,0,1,3.15L94.68,74.42a3.53,3.53,0,0,0,2.45,1,3.51,3.51,0,0,0,2.45-6Z"/></g></g></svg>