<svg xmlns="http://www.w3.org/2000/svg" viewBox="0 0 75 35.14"><defs><style>.cls-1{fill:#fff;}</style></defs><title>in-horizontal-maximize-icon-white</title><g id="Layer_2" data-name="Layer 2"><g id="Layer_1-2" data-name="Layer 1"><path class="cls-1" d="M29.17,14.45h-20l9.36-9.37A3,3,0,0,0,18.41.73,3.12,3.12,0,0,0,14.16,1L1.65,13.48a5.6,5.6,0,0,0,0,7.94L14.41,34.18a3.11,3.11,0,0,0,4.24.24,3,3,0,0,0,.12-4.36L9.16,20.45H29a3.1,3.1,0,0,0,3.14-2.77,3,3,0,0,0-.87-2.35A3,3,0,0,0,29.17,14.45Z"/><path class="cls-1" d="M73.35,13.72,60.59,1A3.1,3.1,0,0,0,56.35.73a3,3,0,0,0-.12,4.35l9.61,9.61H46a3.1,3.1,0,0,0-3.14,2.77,3,3,0,0,0,3,3.23h20l-9.36,9.37a3,3,0,0,0,.11,4.35,3.12,3.12,0,0,0,4.25-.23L73.35,21.67A5.61,5.61,0,0,0,73.35,13.72Z"/></g></g></svg>