<svg xmlns="http://www.w3.org/2000/svg" viewBox="0 0 75 35.14"><title>in-horizontal-minimize-icon-black</title><g id="Layer_2" data-name="Layer 2"><g id="Layer_1-2" data-name="Layer 1"><path d="M18,1A3.12,3.12,0,0,0,13.76.73a3,3,0,0,0-.11,4.35L23,14.45H3a3,3,0,0,0-3,3.23,3.11,3.11,0,0,0,3.15,2.77H23l-9.61,9.61a3,3,0,0,0,.11,4.36,3.13,3.13,0,0,0,4.25-.24L30.53,21.42a5.62,5.62,0,0,0,0-7.94Z"/><path d="M71.84,14.69H52l9.61-9.61A3,3,0,0,0,61.48.73,3.12,3.12,0,0,0,57.23,1L44.47,13.72a5.63,5.63,0,0,0,0,8L57,34.18a3.12,3.12,0,0,0,4.25.23,3,3,0,0,0,.11-4.35L52,20.69H72a3,3,0,0,0,2.12-.88A3,3,0,0,0,75,17.46,3.11,3.11,0,0,0,71.84,14.69Z"/></g></g></svg>