<svg xmlns="http://www.w3.org/2000/svg" viewBox="0 0 75.19 72.22"><title>in-item-request-icon-black</title><g id="Layer_2" data-name="Layer 2"><g id="Layer_1-2" data-name="Layer 1"><path d="M69.57,0H5.62A5.62,5.62,0,0,0,0,5.62V46.88A5.62,5.62,0,0,0,5.62,52.5h7.92a1,1,0,0,1,1,1.06L13.61,70.1A2,2,0,0,0,17,71.67L35.75,54A5.62,5.62,0,0,1,39.6,52.5h30a5.62,5.62,0,0,0,5.62-5.62V5.62A5.62,5.62,0,0,0,69.57,0ZM26.66,54.33,22,58.73A1,1,0,0,1,20.3,58l.19-3.46a2,2,0,0,1,2-1.89H26A1,1,0,0,1,26.66,54.33ZM69.19,44.5a2,2,0,0,1-2,2H8a2,2,0,0,1-2-2V8A2,2,0,0,1,8,6H67.19a2,2,0,0,1,2,2Z"/><path d="M47.59,12.61h-20a3,3,0,0,0-3,3v20a3,3,0,0,0,3,3h20a3,3,0,0,0,3-3v-20A3,3,0,0,0,47.59,12.61Zm-3,19a1,1,0,0,1-1,1h-12a1,1,0,0,1-1-1v-12a1,1,0,0,1,1-1h2a1,1,0,0,1,1,1v5a1,1,0,0,0,1,1h4a1,1,0,0,0,1-1v-5a1,1,0,0,1,1-1h2a1,1,0,0,1,1,1Z"/></g></g></svg>