<svg xmlns="http://www.w3.org/2000/svg" viewBox="0 0 75.35 73.25"><title>in-invoice-icon-black</title><g id="Layer_2" data-name="Layer 2"><g id="Layer_1-2" data-name="Layer 1"><path d="M72.18,0H3A3,3,0,0,0,0,3.16,3.13,3.13,0,0,0,3.17,6H5.43a2,2,0,0,1,2,2V71.25a2,2,0,0,0,3,1.7l8-4.89a2,2,0,0,1,2.08,0l7,4.28a2,2,0,0,0,2.09,0l7-4.28a2,2,0,0,1,2.09,0l7,4.28a2,2,0,0,0,2.09,0l7-4.28a2,2,0,0,1,2.08,0l8,4.89a2,2,0,0,0,3-1.7V8a2,2,0,0,1,2-2h2.43a3,3,0,0,0,3-3.16A3.13,3.13,0,0,0,72.18,0ZM60.4,63.18,56.88,61a2,2,0,0,0-2.08,0l-7,4.28a2,2,0,0,1-2.09,0l-7-4.28a2,2,0,0,0-2.09,0l-7,4.28a2,2,0,0,1-2.09,0l-7-4.28a2,2,0,0,0-2.08,0L15,63.18a1,1,0,0,1-1.52-.86V8a2,2,0,0,1,2-2H59.92a2,2,0,0,1,2,2V62.32A1,1,0,0,1,60.4,63.18Z"/><path d="M20.17,22h35a3,3,0,0,0,0-6h-35a3,3,0,0,0,0,6Z"/><path d="M20.17,37h35a3,3,0,0,0,0-6h-35a3,3,0,0,0,0,6Z"/><path d="M55.17,46h-35a3,3,0,0,0,0,6h35a3,3,0,0,0,0-6Z"/></g></g></svg>