<svg xmlns="http://www.w3.org/2000/svg" viewBox="0 0 75 75"><defs><style>.cls-1{fill:#fff;}</style></defs><title>in-inventory-icon-white</title><g id="Layer_2" data-name="Layer 2"><g id="Layer_1-2" data-name="Layer 1"><path class="cls-1" d="M30,42H3a3,3,0,0,0-3,3V72a3,3,0,0,0,3,3H30a3,3,0,0,0,3-3V45A3,3,0,0,0,30,42ZM27,68a1,1,0,0,1-1,1H7a1,1,0,0,1-1-1V49a1,1,0,0,1,1-1h5.5a1,1,0,0,1,1,1v7a1,1,0,0,0,1,1h4a1,1,0,0,0,1-1V49a1,1,0,0,1,1-1H26a1,1,0,0,1,1,1Z"/><path class="cls-1" d="M72,42H45a3,3,0,0,0-3,3V72a3,3,0,0,0,3,3H72a3,3,0,0,0,3-3V45A3,3,0,0,0,72,42ZM69,68a1,1,0,0,1-1,1H49a1,1,0,0,1-1-1V49a1,1,0,0,1,1-1h5.5a1,1,0,0,1,1,1v7a1,1,0,0,0,1,1h4a1,1,0,0,0,1-1V49a1,1,0,0,1,1-1H68a1,1,0,0,1,1,1Z"/><path class="cls-1" d="M24,33H51a3,3,0,0,0,3-3V3a3,3,0,0,0-3-3H24a3,3,0,0,0-3,3V30A3,3,0,0,0,24,33ZM27,7a1,1,0,0,1,1-1h5.5a1,1,0,0,1,1,1v7a1,1,0,0,0,1,1h4a1,1,0,0,0,1-1V7a1,1,0,0,1,1-1H47a1,1,0,0,1,1,1V26a1,1,0,0,1-1,1H28a1,1,0,0,1-1-1Z"/></g></g></svg>