<svg xmlns="http://www.w3.org/2000/svg" viewBox="0 0 75.15 36.75"><defs><style>.cls-1{fill:#fff;}</style></defs><title>in-lease-icon-white</title><g id="Layer_2" data-name="Layer 2"><g id="Layer_1-2" data-name="Layer 1"><path class="cls-1" d="M72,15.37H21a2,2,0,0,1-2-2V5.62A5.62,5.62,0,0,0,13.38,0H5.62A5.62,5.62,0,0,0,0,5.62V31.13a5.62,5.62,0,0,0,5.62,5.62h7.76A5.62,5.62,0,0,0,19,31.13V23.38a2,2,0,0,1,2-2H48.5a2,2,0,0,1,2,2v8.69a3.12,3.12,0,0,0,2.84,3.17,3,3,0,0,0,3.16-3V23.38a2,2,0,0,1,2-2H61a2,2,0,0,1,2,2v8.69a3.12,3.12,0,0,0,2.84,3.17,3,3,0,0,0,3.16-3V23.38a2,2,0,0,1,2-2h1.15a3,3,0,0,0,3-3.17A3.12,3.12,0,0,0,72,15.37ZM11,30.75H8a2,2,0,0,1-2-2V8A2,2,0,0,1,8,6h3a2,2,0,0,1,2,2V28.75A2,2,0,0,1,11,30.75Z"/></g></g></svg>