<svg xmlns="http://www.w3.org/2000/svg" viewBox="0 0 98.28 75.42"><defs><style>.cls-1{fill:#fff;}</style></defs><title>in-lease-reference-icon-white</title><g id="Layer_2" data-name="Layer 2"><g id="Layer_1-2" data-name="Layer 1"><path class="cls-1" d="M23.13,20V45.47a5.62,5.62,0,0,0,5.62,5.62h7.76a5.62,5.62,0,0,0,5.62-5.62V37.71a2,2,0,0,1,2-2H52a2,2,0,0,0,2-1.86c0-.52,0-1,0-1.56,0-.21,0-.43,0-.64a2,2,0,0,0-2-1.94H44.13a2,2,0,0,1-2-2V20a5.62,5.62,0,0,0-5.62-5.62H28.75A5.62,5.62,0,0,0,23.13,20Zm6,2.38a2,2,0,0,1,2-2h3a2,2,0,0,1,2,2V43.09a2,2,0,0,1-2,2h-3a2,2,0,0,1-2-2Z"/><path class="cls-1" d="M95.12,29.71H71a2,2,0,0,0-2,2.05c0,.13,0,.25,0,.37,0,.5,0,1,0,1.5a2,2,0,0,0,2,2.08h.63a2,2,0,0,1,2,2v8.7a3.11,3.11,0,0,0,2.84,3.16,3,3,0,0,0,3.16-3V37.71a2,2,0,0,1,2-2h2.5a2,2,0,0,1,2,2v8.7A3.11,3.11,0,0,0,89,49.57a3,3,0,0,0,3.16-3V37.71a2,2,0,0,1,2-2h1.16a3,3,0,0,0,3-3.16A3.12,3.12,0,0,0,95.12,29.71Z"/><path class="cls-1" d="M64.87,35.71A32.51,32.51,0,0,0,32.52,0V7A25.49,25.49,0,0,1,57.85,29.71a24.58,24.58,0,0,1-.05,6A25.5,25.5,0,1,1,32.51,7V0h0A32.52,32.52,0,1,0,53.74,57.13c.69-.58,1.35-1.21,2-1.87s1.25-1.33,1.82-2A32.36,32.36,0,0,0,64.87,35.71Z"/><path class="cls-1" d="M63.09,57.56a3.46,3.46,0,0,0-2.44-1,3.65,3.65,0,0,0-.74.08,3.5,3.5,0,0,0-1.71,5.92L70.31,74.42a3.53,3.53,0,0,0,2.45,1,3.51,3.51,0,0,0,2.45-6Z"/></g></g></svg>