<svg xmlns="http://www.w3.org/2000/svg" viewBox="0 0 75 55"><title>in-logout-icon-black</title><g id="Layer_2" data-name="Layer 2"><g id="Layer_1-2" data-name="Layer 1"><path d="M51.26,33.47H49.79A2.31,2.31,0,0,0,47.65,35a21.49,21.49,0,1,1,0-15,2.3,2.3,0,0,0,2.14,1.49h1.5a2.32,2.32,0,0,0,2.16-3.1,27.5,27.5,0,1,0,0,18.18A2.31,2.31,0,0,0,51.26,33.47Z"/><path d="M73.27,23.44l-8.15-7.8a3,3,0,0,0-4.34.2,3.11,3.11,0,0,0,.32,4.25l4.6,4.41H38.06a3.1,3.1,0,0,0-3.16,2.84,3,3,0,0,0,3,3.16H65.7l-4.61,4.42a3.1,3.1,0,0,0-.34,4.21,3,3,0,0,0,2.3,1.06,3,3,0,0,0,2.07-.83l8.15-7.8A5.62,5.62,0,0,0,73.27,23.44Z"/></g></g></svg>