<svg xmlns="http://www.w3.org/2000/svg" viewBox="0 0 18 75"><defs><style>.cls-1{fill:#fff;}</style></defs><title>in-more-vertical-icon-white</title><g id="Layer_2" data-name="Layer 2"><g id="Layer_1-2" data-name="Layer 1"><path class="cls-1" d="M9,18A9,9,0,1,0,0,9,9,9,0,0,0,9,18ZM9,6A3,3,0,1,1,6,9,3,3,0,0,1,9,6Z"/><path class="cls-1" d="M9,28.5a9,9,0,1,0,9,9A9,9,0,0,0,9,28.5Zm0,12a3,3,0,1,1,3-3A3,3,0,0,1,9,40.5Z"/><path class="cls-1" d="M9,57a9,9,0,1,0,9,9A9,9,0,0,0,9,57ZM9,69a3,3,0,1,1,3-3A3,3,0,0,1,9,69Z"/></g></g></svg>