<svg xmlns="http://www.w3.org/2000/svg" viewBox="0 0 66.92 66.92"><title>in-minimize-icon-black_1</title><g id="Layer_2" data-name="Layer 2"><g id="Layer_1-2" data-name="Layer 1"><path d="M24,0a3,3,0,0,0-3.16,3V16.25L6.68,2.09a3,3,0,0,0-4.4.17,3.11,3.11,0,0,0,.27,4.19l14,14H3a3,3,0,0,0-3,3.16,3.13,3.13,0,0,0,3.17,2.84h18a5.62,5.62,0,0,0,5.62-5.62V3.17A3.11,3.11,0,0,0,24,0Z"/><path d="M45.7,26.49h18a3.11,3.11,0,0,0,3.16-2.84,3,3,0,0,0-3-3.16H50.33l14-14a3.11,3.11,0,0,0,.27-4.19,3,3,0,0,0-4.4-.17L46.08,16.25V3a3,3,0,0,0-3.16-3,3.12,3.12,0,0,0-2.84,3.17v17.7A5.62,5.62,0,0,0,45.7,26.49Z"/><path d="M21.21,40.43h-18A3.12,3.12,0,0,0,0,43.26a3,3,0,0,0,3,3.17H16.59l-14,14a3.1,3.1,0,0,0-.27,4.18,3,3,0,0,0,4.4.17L20.83,50.67V63.92a3,3,0,0,0,3.16,3,3.1,3.1,0,0,0,2.84-3.16V46.05A5.61,5.61,0,0,0,21.21,40.43Z"/><path d="M63.75,40.43h-18a5.62,5.62,0,0,0-5.62,5.62v17.7a3.11,3.11,0,0,0,2.84,3.16,3,3,0,0,0,3.16-3V50.67L60.24,64.82a3,3,0,0,0,2.12.88,3,3,0,0,0,2.28-1,3.1,3.1,0,0,0-.27-4.18l-14-14H63.92a3,3,0,0,0,3-3.17A3.1,3.1,0,0,0,63.75,40.43Z"/></g></g></svg>