<svg xmlns="http://www.w3.org/2000/svg" viewBox="0 0 75.19 72.22"><defs><style>.cls-1{fill:#fff;}</style></defs><title>in-message-icon-white</title><g id="Layer_2" data-name="Layer 2"><g id="Layer_1-2" data-name="Layer 1"><path class="cls-1" d="M69.57,0H5.62A5.62,5.62,0,0,0,0,5.62V46.88A5.62,5.62,0,0,0,5.62,52.5h7.92a1,1,0,0,1,1,1.06L13.61,70.1A2,2,0,0,0,17,71.67L35.75,54A5.62,5.62,0,0,1,39.6,52.5h30a5.62,5.62,0,0,0,5.62-5.62V5.62A5.62,5.62,0,0,0,69.57,0ZM26.66,54.33,22,58.73A1,1,0,0,1,20.3,58l.19-3.46a2,2,0,0,1,2-1.89H26A1,1,0,0,1,26.66,54.33ZM69.19,44.5a2,2,0,0,1-2,2H8a2,2,0,0,1-2-2V8A2,2,0,0,1,8,6H67.19a2,2,0,0,1,2,2Z"/><path class="cls-1" d="M58.24,11.61H17a3,3,0,0,0,0,6H58.24a3,3,0,0,0,0-6Z"/><path class="cls-1" d="M57.79,23.11H17a3,3,0,0,0,0,6H57.79a3,3,0,1,0,0-6Z"/><path class="cls-1" d="M41.75,34.61H17a3,3,0,0,0,0,6h24.8a3,3,0,0,0,0-6Z"/></g></g></svg>