<svg xmlns="http://www.w3.org/2000/svg" viewBox="0 0 75 75"><defs><style>.cls-1{fill:#fff;}</style></defs><title>in-maximize-icon-white</title><g id="Layer_2" data-name="Layer 2"><g id="Layer_1-2" data-name="Layer 1"><path class="cls-1" d="M23.66,0h-18A5.62,5.62,0,0,0,0,5.62v17.7a3.12,3.12,0,0,0,2.84,3.17,3,3,0,0,0,3.16-3V10.24L20.15,24.4a3,3,0,0,0,2.13.87,3,3,0,0,0,2.27-1A3.1,3.1,0,0,0,24.28,20l-14-14H23.83a3,3,0,0,0,3-3.16A3.12,3.12,0,0,0,23.66,0Z"/><path class="cls-1" d="M69.38,0h-18a3.12,3.12,0,0,0-3.17,2.84,3,3,0,0,0,3,3.16H64.76l-14,14a3.1,3.1,0,0,0-.27,4.19,3,3,0,0,0,2.27,1,3,3,0,0,0,2.13-.87L69,10.24V23.49a3,3,0,0,0,3.16,3A3.12,3.12,0,0,0,75,23.32V5.62A5.62,5.62,0,0,0,69.38,0Z"/><path class="cls-1" d="M23.83,69H10.24l14-14a3.1,3.1,0,0,0,.27-4.19,3,3,0,0,0-2.27-1,3,3,0,0,0-2.13.87L6,64.76V51.51a3,3,0,0,0-3.16-3A3.12,3.12,0,0,0,0,51.68v17.7A5.62,5.62,0,0,0,5.62,75h18a3.12,3.12,0,0,0,3.17-2.84A3,3,0,0,0,23.83,69Z"/><path class="cls-1" d="M72.16,48.51a3,3,0,0,0-3.16,3V64.76L54.85,50.6a3,3,0,0,0-2.13-.87,3,3,0,0,0-2.27,1A3.1,3.1,0,0,0,50.72,55l14,14H51.17a3,3,0,0,0-3,3.16A3.12,3.12,0,0,0,51.34,75h18A5.62,5.62,0,0,0,75,69.38V51.68A3.12,3.12,0,0,0,72.16,48.51Z"/></g></g></svg>