<svg xmlns="http://www.w3.org/2000/svg" viewBox="0 0 458.3 511.98"><defs><style>.cls-1{fill:#fff;}</style></defs><title>in-open-work-order-white</title><g id="Layer_2" data-name="Layer 2"><g id="Layer_1-2" data-name="Layer 1"><path class="cls-1" d="M458.22,297.42c1.49-25.34-19.25-46.49-44.63-46.49H363.3a0,0,0,0,1,0,0V182.31l0,0A97,97,0,0,0,349.1,7.7L328.8,0s-.05,0-.05,0V65.1s0,0,0,0l-14,8.64a0,0,0,0,1,0,0l-14-8.64s0,0,0,0V0s0,0-.05,0L280.35,7.7a97,97,0,0,0-13.41,175,.05.05,0,0,1,0,0v20.14a0,0,0,0,1,0,0H203.34l-80.65,64.85H112.18a0,0,0,0,1,0,0v-8.93a15,15,0,0,0-15-15H15a15,15,0,0,0-15,15V497a15,15,0,0,0,15,15H97.13a15,15,0,0,0,15-15V483.58a0,0,0,0,1,.06,0L166.82,512H383.75v-.82a43.86,43.86,0,0,0,29.89-64.42,0,0,0,0,1,0-.05,43.81,43.81,0,0,0,13.51-58.15s0,0,0-.05a43.8,43.8,0,0,0,12.74-57.93,0,0,0,0,1,0-.05A43.86,43.86,0,0,0,458.22,297.42ZM247.8,98.36a67.27,67.27,0,0,1,22.79-50.24,0,0,0,0,1,.07,0V73.5a15,15,0,0,0,7.12,12.77l29.05,17.94a15,15,0,0,0,15.78,0l29.05-17.93a15,15,0,0,0,7.13-12.78V48.15s0,0,.06,0a66.86,66.86,0,0,1-16.76,111.31h0a15,15,0,0,0-8.86,13.7v77.76a0,0,0,0,1,0,.05H297a0,0,0,0,1,0-.05V173.48a15,15,0,0,0-9-13.76h0A67,67,0,0,1,247.8,98.36ZM82.07,482h-52a0,0,0,0,1,0,0v-208a0,0,0,0,1,0,0h52a0,0,0,0,1,0,0v208A0,0,0,0,1,82.07,482Zm292.81,0h-197a15.11,15.11,0,0,1-6.94-1.7l-50.69-26.4a15,15,0,0,1-8.08-13.32V312.87a15,15,0,0,1,15-15h6.07s0,0,0,0l76.55-61.54a15.05,15.05,0,0,1,9.41-3.31h47.29a0,0,0,0,1,0,0V266a15,15,0,0,0,15,15H414a14.15,14.15,0,0,1,14.28,13.19,13.88,13.88,0,0,1-13.84,14.53H326.93a0,0,0,0,0,0,0v29.95s0,0,0,0h74.6a14.15,14.15,0,0,1,14.28,13.2A13.87,13.87,0,0,1,402,366.44H314a0,0,0,0,0,0,0v30a0,0,0,0,0,0,0h74.6a14.16,14.16,0,0,1,14.29,13.19,13.88,13.88,0,0,1-13.85,14.53H300.27a0,0,0,0,0,0,0v29.95a0,0,0,0,0,0,0h75a13.88,13.88,0,0,1,13.85,14.51A14.16,14.16,0,0,1,374.88,482Z"/></g></g></svg>