<svg xmlns="http://www.w3.org/2000/svg" viewBox="0 0 327.3 499.69"><defs><style>.cls-1{fill:#fff;}</style></defs><title>in-over-due-icon-white</title><g id="Layer_2" data-name="Layer 2"><g id="Layer_1-2" data-name="Layer 1"><path class="cls-1" d="M298.56,131.55V96.19h5.22a23.46,23.46,0,0,0,23.52-23.1v-50A23.49,23.49,0,0,0,303.78,0H23.51A23.48,23.48,0,0,0,0,23.13v50a23.45,23.45,0,0,0,23.51,23.1h5.22v35.36a54.82,54.82,0,0,0,20.72,43l94,75.14L51.3,321.16A54.72,54.72,0,0,0,30,364.67V403.5H23.51A23.45,23.45,0,0,0,0,426.6v49.95a23.48,23.48,0,0,0,23.51,23.14H303.78a23.5,23.5,0,0,0,23.52-23.14V426.6a23.46,23.46,0,0,0-23.52-23.1h-4V364.92A55.45,55.45,0,0,0,278,321.09l-94-71.5,93.87-75A54.83,54.83,0,0,0,298.56,131.55ZM25,25H302.31V71.21H25ZM302.31,474.7H25V428.48H40.32c.72,0,1.44.21,2.2.21s1.48-.21,2.2-.21H285c.71,0,1.45.21,2.2.21s1.48-.21,2.19-.21h13ZM274.83,364.92V403.5H55V364.67A29.89,29.89,0,0,1,66.63,340.9l97.08-75.3L262.87,341A30.37,30.37,0,0,1,274.83,364.92ZM262.23,155l-98.56,78.81L65.08,155a30,30,0,0,1-11.36-23.49V96.19H273.58v35.36A30,30,0,0,1,262.23,155Z"/></g></g></svg>