<svg xmlns="http://www.w3.org/2000/svg" viewBox="0 0 75.31 75.16"><defs><style>.cls-1{fill:#fff;}</style></defs><title>in-personnel-icon-white</title><g id="Layer_2" data-name="Layer 2"><g id="Layer_1-2" data-name="Layer 1"><path class="cls-1" d="M35.45,33.86A17,17,0,1,0,20.8,19.21,17,17,0,0,0,35.45,33.86Zm.34-27.71a11,11,0,1,1-9,9A11,11,0,0,1,35.79,6.15Z"/><path class="cls-1" d="M75.3,71.85c0-.33-3.83-33-37.57-33S.05,71.51,0,71.84a3,3,0,0,0,2.66,3.3l.32,0a3,3,0,0,0,3-2.68c.11-1,2.7-22.65,24.07-26.9a3,3,0,0,1,3.13,1.34l1.13,1.79a3,3,0,0,1,.34,2.47l-2.74,9.09-1.81,6-1.16,3.86A3,3,0,0,0,31.81,74H43.5a3,3,0,0,0,2.88-3.87l-1.17-3.86-1.81-6-2.74-9.09A3,3,0,0,1,41,48.71l1.15-1.81a3,3,0,0,1,3.13-1.34c21.31,4.21,23.94,25.9,24,26.91a3,3,0,0,0,6-.62ZM38.79,68H36.52a.5.5,0,0,1-.48-.64l1.14-3.77a.5.5,0,0,1,1,0l1.13,3.77A.49.49,0,0,1,38.79,68Z"/></g></g></svg>
