<svg xmlns="http://www.w3.org/2000/svg" viewBox="0 0 66.95 66.95"><defs><style>.cls-1{fill:#fff;}</style></defs><title>in-ppm-icon-white</title><g id="Layer_2" data-name="Layer 2"><g id="Layer_1-2" data-name="Layer 1"><path class="cls-1" d="M17.05,1.49h0a3.07,3.07,0,0,0-1.14,5.07L27.55,18.21a6.6,6.6,0,0,1,0,9.34h0a6.6,6.6,0,0,1-9.34,0L6.56,15.9A3.08,3.08,0,0,0,1.49,17v0A25.4,25.4,0,0,0,33.64,49.72a2,2,0,0,1,2.09.51l15,15a5.76,5.76,0,0,0,8.15,0l6.36-6.35a5.76,5.76,0,0,0,0-8.15l-15-15a2,2,0,0,1-.52-2.09A25.39,25.39,0,0,0,17.05,1.49ZM59.19,56.28l-2.9,2.9a2.05,2.05,0,0,1-2.9,0L42,47.84a2.06,2.06,0,0,1,.13-3c.47-.4.93-.83,1.38-1.28s.88-.91,1.29-1.39a2.06,2.06,0,0,1,3-.12L59.19,53.38A2.05,2.05,0,0,1,59.19,56.28ZM44.4,29.89A19.57,19.57,0,0,1,29.9,44.4,19.2,19.2,0,0,1,6.18,26.77,1,1,0,0,1,7.94,26l5.92,5.92a12.77,12.77,0,0,0,18.05,0h0a12.76,12.76,0,0,0,0-18L26,7.93a1,1,0,0,1,.79-1.75A19.17,19.17,0,0,1,44.4,29.89Z"/></g></g></svg>