<?xml version="1.0" encoding="utf-8"?>
<!-- Generator: Adobe Illustrator 22.0.1, SVG Export Plug-In . SVG Version: 6.00 Build 0)  -->
<svg version="1.1" id="Layer_1" xmlns="http://www.w3.org/2000/svg" xmlns:xlink="http://www.w3.org/1999/xlink" x="0px" y="0px"
	 viewBox="0 0 75 75" style="enable-background:new 0 0 75 75;" xml:space="preserve">
<style type="text/css">
	.st0{display:none;}
	.st1{display:inline;}
	.st2{display:inline;fill:#00DF06;}
	.st3{fill:#008FF4;}
</style>
<g class="st0">
	<rect x="-0.5" y="-0.5" class="st1" width="76" height="76"/>
	<path class="st2" d="M75,0v75H0V15.5V0H75 M76-1h-1H0h-1v1v15.5V75v1h1h75h1v-1V0V-1L76-1z"/>
</g>
<g>
	<path class="st3" d="M38.8,56.9c-5.3-1-9.8,3.6-8.8,8.8c0.6,2.9,2.9,5.3,5.9,5.9c5.3,1,9.8-3.6,8.8-8.8
		C44.1,59.9,41.7,57.5,38.8,56.9z M37.3,65.8c-0.8,0-1.5-0.7-1.5-1.5s0.7-1.5,1.5-1.5s1.5,0.7,1.5,1.5S38.1,65.8,37.3,65.8z"/>
	<path class="st3" d="M60.3,56.9c-5.3-1-9.8,3.6-8.8,8.8c0.6,2.9,2.9,5.3,5.9,5.9c5.3,1,9.8-3.6,8.8-8.8
		C65.6,59.9,63.2,57.5,60.3,56.9z M58.8,65.8c-0.8,0-1.5-0.7-1.5-1.5s0.7-1.5,1.5-1.5s1.5,0.7,1.5,1.5S59.6,65.8,58.8,65.8z"/>
	<path class="st3" d="M45.8,28.5c1.2,1.2,3.2,1.2,4.4,0l7.9-7.6c1.3-1.3,1.2-3.5-0.4-4.6c-1.2-0.8-2.8-0.6-3.9,0.4l-2.9,2.8V6.2
		c0-1.7-1.4-3.1-3.2-3c-1.6,0.1-2.8,1.5-2.8,3.2c0,2.9,0,9,0,13.1l-3-2.9c-1.2-1.1-3.1-1.1-4.2,0.1c-1.1,1.2-1.1,3.1,0.1,4.2
		L45.8,28.5z"/>
	<path class="st3" d="M73.1,16.2c-1.5-0.7-3.3,0.1-3.9,1.6L58.6,42.4c-0.5,1.1-1.6,1.8-2.8,1.8H40.4c-1.2,0-2.3-0.7-2.7-1.8
		L22.7,9.1c-0.9-2-2.9-3.3-5.1-3.3L3.1,5.7c0,0,0,0,0,0c-1.7,0-3.1,1.4-3,3.2c0.1,1.6,1.5,2.8,3.1,2.9l12.2,0.1
		c1.2,0,2.2,0.7,2.7,1.8l14.9,33.4c0.9,2,2.9,3.3,5.1,3.3H58c2.2,0,4.3-1.3,5.2-3.4l11.5-26.7C75.3,18.6,74.6,16.8,73.1,16.2z"/>
</g>
</svg>
