<svg xmlns="http://www.w3.org/2000/svg" viewBox="0 0 74.8 68.62"><defs><style>.cls-1{fill:#fff;}</style></defs><title>in-procurement-icon-white</title><g id="Layer_2" data-name="Layer 2"><g id="Layer_1-2" data-name="Layer 1"><path class="cls-1" d="M38.68,53.76a7.51,7.51,0,1,0,5.89,5.89A7.51,7.51,0,0,0,38.68,53.76Zm-1.47,8.86a1.5,1.5,0,1,1,1.5-1.5A1.5,1.5,0,0,1,37.21,62.62Z"/><path class="cls-1" d="M60.18,53.76a7.51,7.51,0,1,0,5.89,5.89A7.51,7.51,0,0,0,60.18,53.76Zm-1.47,8.86a1.5,1.5,0,1,1,1.5-1.5A1.5,1.5,0,0,1,58.71,62.62Z"/><path class="cls-1" d="M45.74,25.35a3.21,3.21,0,0,0,4.43,0l7.94-7.57a3,3,0,0,0-.36-4.63,3.08,3.08,0,0,0-3.87.36L51,16.31V3A3,3,0,0,0,47.8,0,3.12,3.12,0,0,0,45,3.17V16.31l-3-2.87a3,3,0,0,0-4.14,4.34Z"/><path class="cls-1" d="M73,13A3,3,0,0,0,69,14.57L58.46,39.26a3,3,0,0,1-2.76,1.82H40.27a3,3,0,0,1-2.73-1.78L22.61,6a5.6,5.6,0,0,0-5.09-3.33L3,2.54H3A3,3,0,0,0,0,5.69,3.12,3.12,0,0,0,3.15,8.54l12.16.07A3,3,0,0,1,18,10.38L33,43.75a5.64,5.64,0,0,0,5.13,3.33H57.93a5.6,5.6,0,0,0,5.16-3.41L74.55,16.93A3,3,0,0,0,73,13Z"/></g></g></svg>