<?xml version="1.0" encoding="utf-8"?>
<!-- Generator: Adobe Illustrator 22.0.1, SVG Export Plug-In . SVG Version: 6.00 Build 0)  -->
<svg version="1.1" id="Layer_1" xmlns="http://www.w3.org/2000/svg" xmlns:xlink="http://www.w3.org/1999/xlink" x="0px" y="0px"
	 viewBox="0 0 75 75" style="enable-background:new 0 0 75 75;" xml:space="preserve">
<style type="text/css">
	.st0{fill:#008FF4;}
</style>
<g>
	<path class="st0" d="M69.5,1.4H5.5C2.4,1.4-0.1,3.9-0.1,7v41.3c0,3.1,2.5,5.6,5.6,5.6h7.9c0.6,0,1,0.5,1,1.1l-0.9,16.5
		c-0.1,1.8,2.1,2.8,3.4,1.6l18.8-17.6c1-1,2.4-1.5,3.8-1.5h30c3.1,0,5.6-2.5,5.6-5.6V7C75.1,3.9,72.6,1.4,69.5,1.4z M20.2,59.3
		l0.2-3.5c0.1-1.1,0.9-1.9,2-1.9h3.5c0.9,0,1.3,1.1,0.7,1.7l-4.7,4.4C21.2,60.7,20.2,60.2,20.2,59.3z M67.1,47.9H7.9
		c-1.1,0-2-0.9-2-2V9.4c0-1.1,0.9-2,2-2h59.2c1.1,0,2,0.9,2,2v36.5C69.1,47,68.2,47.9,67.1,47.9z"/>
	<path class="st0" d="M31.7,28.7c1.2,0.7,2.5,1.2,4.1,1.5l0.8,0.1c1.3,0.2,2.3,0.6,2.9,1c0.6,0.4,0.9,1,0.9,1.6
		c0,0.6-0.2,1.1-0.7,1.5c-0.5,0.4-1.1,0.6-1.9,0.6s-1.5-0.2-2.1-0.7c-0.3-0.2-0.5-0.5-0.7-0.7c-0.5-0.7-1.4-1-2.2-0.9l-2.3,0.4
		c-1.6,0.3-2.3,2.2-1.3,3.5l0,0c0.7,0.9,1.5,1.6,2.5,2.2c0.6,0.4,1.3,0.7,2,0.9c0.8,0.3,1.3,1,1.3,1.9v1.4c0,1.2,1,2.2,2.2,2.2h0.5
		c1.2,0,2.2-1,2.2-2.2l0-1.2c0-0.9,0.6-1.7,1.4-1.9c0.9-0.3,1.7-0.7,2.5-1.2c1.1-0.8,2-1.7,2.6-2.8c0.6-1.1,0.9-2.4,0.9-3.8
		c0-1.3-0.3-2.4-0.9-3.5c-0.6-1-1.4-1.9-2.6-2.6c-1.1-0.7-2.5-1.2-4-1.5L39,24.5c-1-0.2-1.8-0.4-2.4-0.6c-0.6-0.2-1-0.5-1.2-0.8
		c-0.2-0.3-0.4-0.7-0.4-1.1c0-0.6,0.2-1.1,0.7-1.5c0.5-0.4,1-0.6,1.8-0.6c0.9,0,1.7,0.4,2.3,1.2c0.5,0.7,1.4,1.1,2.3,0.9l2.1-0.4
		c1.6-0.3,2.3-2.2,1.4-3.5c0,0,0,0,0-0.1c-0.7-0.9-1.5-1.6-2.4-2.2c-0.6-0.4-1.2-0.7-1.8-0.9c-0.8-0.3-1.4-1-1.4-1.9l0-1
		c0-1.2-1-2.2-2.2-2.2h-0.5c-1.2,0-2.2,1-2.2,2.2l0,1c0,0.8-0.5,1.6-1.3,1.9c-0.8,0.3-1.5,0.7-2.2,1.2c-1,0.8-1.8,1.7-2.4,2.8
		c-0.6,1.1-0.9,2.3-0.9,3.6c0,1.3,0.3,2.5,0.9,3.5C29.7,27.1,30.6,27.9,31.7,28.7z"/>
</g>
</svg>
