<?xml version="1.0" encoding="utf-8"?>
<!-- Generator: Adobe Illustrator 22.0.1, SVG Export Plug-In . SVG Version: 6.00 Build 0)  -->
<svg version="1.1" id="Layer_1" xmlns="http://www.w3.org/2000/svg" xmlns:xlink="http://www.w3.org/1999/xlink" x="0px" y="0px"
	 viewBox="0 0 75 75" style="enable-background:new 0 0 75 75;" xml:space="preserve">
<style type="text/css">
	.st0{fill:#FFFFFF;stroke:#000000;stroke-width:6;stroke-miterlimit:10;}
</style>
<path class="st0" d="M38,1.5l8.3,26.7c0.1,0.2,0.3,0.4,0.5,0.4h26.8c0.5,0,0.7,0.6,0.3,0.9L52.1,46.1c-0.2,0.1-0.2,0.3-0.2,0.5
	l8.3,26.8c0.1,0.5-0.4,0.8-0.8,0.5L37.8,57.5c-0.2-0.1-0.4-0.1-0.6,0L15.6,74.1c-0.4,0.3-0.9-0.1-0.8-0.5l8.3-26.8
	c0.1-0.2,0-0.4-0.2-0.5L1.2,29.5c-0.4-0.3-0.2-0.9,0.3-0.9h26.8c0.2,0,0.4-0.1,0.5-0.4L37,1.5C37.2,1.1,37.8,1.1,38,1.5z"/>
</svg>
