<svg xmlns="http://www.w3.org/2000/svg" viewBox="0 0 75 71.81"><defs><style>.cls-1{fill:#fff;}</style></defs><title>in-rating-icon-white</title><g id="Layer_2" data-name="Layer 2"><g id="Layer_1-2" data-name="Layer 1"><path class="cls-1" d="M37.5,7.4l6.8,13.79a10.9,10.9,0,0,0,8.2,5.95l15.22,2.21-11,10.74a10.85,10.85,0,0,0-3.13,9.63l2.6,15.16L42.57,57.72a10.91,10.91,0,0,0-10.14,0L18.82,64.88l2.6-15.16a10.85,10.85,0,0,0-3.13-9.63l-11-10.74L22.5,27.14a10.9,10.9,0,0,0,8.2-5.95L37.5,7.4m0-7.4a4.83,4.83,0,0,0-4.38,2.72l-7.8,15.81a4.94,4.94,0,0,1-3.69,2.68L4.19,23.74a4.89,4.89,0,0,0-2.71,8.34L14.1,44.38a4.88,4.88,0,0,1,1.41,4.33l-3,17.37a4.88,4.88,0,0,0,7.09,5.16L35.23,63a4.88,4.88,0,0,1,4.54,0l15.61,8.21a4.88,4.88,0,0,0,7.09-5.16l-3-17.37a4.88,4.88,0,0,1,1.41-4.33l12.62-12.3a4.89,4.89,0,0,0-2.71-8.34L53.37,21.21a4.94,4.94,0,0,1-3.69-2.68L41.88,2.72A4.83,4.83,0,0,0,37.5,0Z"/></g></g></svg>