<svg xmlns="http://www.w3.org/2000/svg" viewBox="0 0 74.98 65.47"><defs><style>.cls-1{fill:#fff;}</style></defs><title>in-reference-icon-white</title><g id="Layer_2" data-name="Layer 2"><g id="Layer_1-2" data-name="Layer 1"><path class="cls-1" d="M47.11,6.89H72a3,3,0,1,0,0-6H47.11a3,3,0,0,0,0,6Z"/><path class="cls-1" d="M72,39.35H47.11a3,3,0,0,0,0,6H72a3,3,0,0,0,0-6Z"/><path class="cls-1" d="M72,20.12H47.11a3,3,0,0,0,0,6H72a3,3,0,0,0,0-6Z"/><path class="cls-1" d="M72,58.59H47.11a3,3,0,0,0,0,6H72a3,3,0,0,0,0-6Z"/><path class="cls-1" d="M19.27,0A19.28,19.28,0,1,0,38.55,19.27,19.27,19.27,0,0,0,19.27,0Zm0,32.55A13.28,13.28,0,1,1,32.55,19.27,13.29,13.29,0,0,1,19.27,32.55Z"/><path class="cls-1" d="M19.27,43a3,3,0,0,0-3,3V62.47a3,3,0,0,0,6,0V46A3,3,0,0,0,19.27,43Z"/></g></g></svg>