<svg xmlns="http://www.w3.org/2000/svg" viewBox="0 0 57 75"><defs><style>.cls-1{fill:#fff;}</style></defs><title>in-remitance-icon-white</title><g id="Layer_2" data-name="Layer 2"><g id="Layer_1-2" data-name="Layer 1"><path class="cls-1" d="M53,7.83C48,3.14,38.92,0,28.5,0S9,3.14,4,7.83A11.28,11.28,0,0,0,0,16V59a11.28,11.28,0,0,0,4,8.17C9,71.86,18.08,75,28.5,75S48,71.86,53,67.17A11.28,11.28,0,0,0,57,59V16A11.28,11.28,0,0,0,53,7.83ZM51,59c0,4.08-8.77,10-22.5,10S6,63.08,6,59a3.17,3.17,0,0,1,.12-.85c5.21,3.72,13.3,6.1,22.38,6.1s17.17-2.38,22.38-6.1A3.17,3.17,0,0,1,51,59ZM6,16C6,11.92,14.77,6,28.5,6S51,11.92,51,16a3.17,3.17,0,0,1-.12.85,6.19,6.19,0,0,1-1.56,2.54,13.7,13.7,0,0,1-2.43,2,24,24,0,0,1-4.34,2.2,33.92,33.92,0,0,1-5.73,1.64A43.42,43.42,0,0,1,28.5,26a43.42,43.42,0,0,1-8.32-.78,33.92,33.92,0,0,1-5.73-1.64,24,24,0,0,1-4.34-2.2,13.7,13.7,0,0,1-2.43-2,6.19,6.19,0,0,1-1.56-2.54A3.17,3.17,0,0,1,6,16ZM51,26.75a3.1,3.1,0,0,1-.12.84,6.22,6.22,0,0,1-1.56,2.55,13.7,13.7,0,0,1-2.43,2,24,24,0,0,1-4.34,2.2A33.92,33.92,0,0,1,36.82,36a43.42,43.42,0,0,1-8.32.78A43.42,43.42,0,0,1,20.18,36a33.92,33.92,0,0,1-5.73-1.64,24,24,0,0,1-4.34-2.2,13.7,13.7,0,0,1-2.43-2,6.22,6.22,0,0,1-1.56-2.55,3,3,0,0,1,0-1.68c.4.29.83.57,1.27.84a28.21,28.21,0,0,0,3.1,1.65,33.58,33.58,0,0,0,4,1.52A46.33,46.33,0,0,0,28.5,32a46.33,46.33,0,0,0,14-2.08,33.58,33.58,0,0,0,4-1.52,28.21,28.21,0,0,0,3.1-1.65c.44-.27.87-.55,1.27-.84A3.1,3.1,0,0,1,51,26.75ZM51,37.5a3.17,3.17,0,0,1-.12.85,6.19,6.19,0,0,1-1.56,2.54,13.7,13.7,0,0,1-2.43,2,24,24,0,0,1-4.34,2.2,33.92,33.92,0,0,1-5.73,1.64,44.76,44.76,0,0,1-16.64,0,33.92,33.92,0,0,1-5.73-1.64,24,24,0,0,1-4.34-2.2,13.7,13.7,0,0,1-2.43-2,6.19,6.19,0,0,1-1.56-2.54,3.07,3.07,0,0,1,0-1.7c.4.29.83.57,1.27.85a26.92,26.92,0,0,0,3.12,1.65,33.26,33.26,0,0,0,3.94,1.52A46.33,46.33,0,0,0,28.5,42.75a46.33,46.33,0,0,0,14-2.08,33.26,33.26,0,0,0,3.94-1.52,26.92,26.92,0,0,0,3.12-1.65c.44-.28.87-.56,1.27-.85A3.17,3.17,0,0,1,51,37.5Zm0,10.75a3.1,3.1,0,0,1-.12.84,6.22,6.22,0,0,1-1.56,2.55,13.7,13.7,0,0,1-2.43,2C43,56.17,36.63,58.25,28.5,58.25S14,56.17,10.11,53.63a13.7,13.7,0,0,1-2.43-2,6.22,6.22,0,0,1-1.56-2.55,3,3,0,0,1,0-1.68c.4.29.83.57,1.27.84a28.21,28.21,0,0,0,3.1,1.65,33.58,33.58,0,0,0,4,1.52A46.33,46.33,0,0,0,28.5,53.5a46.33,46.33,0,0,0,14-2.08,33.58,33.58,0,0,0,4-1.52,28.21,28.21,0,0,0,3.1-1.65c.44-.27.87-.55,1.27-.84A3.1,3.1,0,0,1,51,48.25Z"/></g></g></svg>