<?xml version="1.0" encoding="utf-8"?>
<!-- Generator: Adobe Illustrator 22.0.0, SVG Export Plug-In . SVG Version: 6.00 Build 0)  -->
<svg version="1.1" id="Layer_1" xmlns="http://www.w3.org/2000/svg" xmlns:xlink="http://www.w3.org/1999/xlink" x="0px" y="0px"
	 viewBox="0 0 75 75" style="enable-background:new 0 0 75 75;" xml:space="preserve">
<style type="text/css">
	.st0{fill:#F0C91F;}
</style>
<g id="Layer_2_1_">
	<g id="Layer_1-2">
		<path class="st0" d="M37.5,2c-1.9,0-3.6,1-4.4,2.7l-7.8,15.8c-0.7,1.4-2.1,2.4-3.7,2.7L4.2,25.7c-2.7,0.4-4.5,2.9-4.1,5.5
			c0.2,1.1,0.7,2,1.4,2.8l12.6,12.3c1.2,1.1,1.7,2.7,1.4,4.3l-3,17.4c-0.5,2.7,1.3,5.2,4,5.7c1.1,0.2,2.2,0,3.1-0.5L35.2,65
			c1.4-0.7,3.1-0.7,4.5,0l15.6,8.2c2.4,1.3,5.3,0.4,6.6-2c0.5-1,0.7-2.1,0.5-3.1l-3-17.4c-0.3-1.6,0.3-3.2,1.4-4.3L73.5,34
			c1.9-1.9,2-5,0.1-6.9c-0.8-0.8-1.7-1.3-2.8-1.4l-17.4-2.5c-1.6-0.2-3-1.2-3.7-2.7L41.9,4.7C41.1,3,39.4,2,37.5,2z"/>
	</g>
</g>
</svg>
