<?xml version="1.0" encoding="utf-8"?>
<!-- Generator: Adobe Illustrator 22.0.0, SVG Export Plug-In . SVG Version: 6.00 Build 0)  -->
<svg version="1.1" id="Layer_1" xmlns="http://www.w3.org/2000/svg" xmlns:xlink="http://www.w3.org/1999/xlink" x="0px" y="0px"
	 viewBox="0 0 75 71.8" style="enable-background:new 0 0 75 71.8;" xml:space="preserve">
<style type="text/css">
	.st0{opacity:0.5;}
</style>
<title>in-rating-icon-black</title>
<g id="Layer_2_1_" class="st0">
	<g id="Layer_1-2">
		<path d="M37.5,7.4l6.8,13.8c1.6,3.2,4.7,5.4,8.2,5.9l15.2,2.2L56.7,40c-2.6,2.5-3.7,6.1-3.1,9.6l2.6,15.2l-13.6-7.2
			c-3.2-1.7-7-1.7-10.1,0l-13.6,7.2l2.6-15.2c0.6-3.5-0.6-7.1-3.1-9.6l-11-10.7l15.2-2.2c3.5-0.5,6.6-2.7,8.2-6L37.5,7.4 M37.5,0
			c-1.9,0-3.6,1-4.4,2.7l-7.8,15.8c-0.7,1.4-2.1,2.4-3.7,2.7L4.2,23.7c-2.7,0.4-4.5,2.9-4.1,5.5c0.2,1.1,0.7,2,1.4,2.8l12.6,12.3
			c1.2,1.1,1.7,2.7,1.4,4.3l-3,17.4c-0.5,2.7,1.3,5.2,4,5.7c1.1,0.2,2.2,0,3.1-0.5L35.2,63c1.4-0.7,3.1-0.7,4.5,0l15.6,8.2
			c2.4,1.3,5.3,0.4,6.6-2c0.5-1,0.7-2.1,0.5-3.1l-3-17.4c-0.3-1.6,0.3-3.2,1.4-4.3L73.5,32c1.9-1.9,2-5,0.1-6.9
			c-0.8-0.8-1.7-1.3-2.8-1.4l-17.4-2.5c-1.6-0.2-3-1.2-3.7-2.7L41.9,2.7C41.1,1,39.4,0,37.5,0z"/>
	</g>
</g>
</svg>
