<?xml version="1.0" encoding="utf-8"?>
<!-- Generator: Adobe Illustrator 22.0.1, SVG Export Plug-In . SVG Version: 6.00 Build 0)  -->
<svg version="1.1" id="Layer_1" xmlns="http://www.w3.org/2000/svg" xmlns:xlink="http://www.w3.org/1999/xlink" x="0px" y="0px"
	 viewBox="0 0 75 75" style="enable-background:new 0 0 75 75;" xml:space="preserve">
<style type="text/css">
	.st0{fill:#FFFFFF;}
</style>
<g>
	<path class="st0" d="M49.6,22.1h-47c-1.4,0-2.6-1.2-2.6-2.6s1.2-2.6,2.6-2.6h47c1.4,0,2.6,1.2,2.6,2.6S51,22.1,49.6,22.1z"/>
	<path class="st0" d="M72.5,39.8H25.3c-1.4,0-2.5-1.2-2.5-2.6s1.1-2.6,2.5-2.6h47.2c1.4,0,2.5,1.2,2.5,2.6S73.9,39.8,72.5,39.8z"/>
	<path class="st0" d="M49.6,57.4h-47c-1.4,0-2.6-1.2-2.6-2.6s1.2-2.6,2.6-2.6h47c1.4,0,2.6,1.2,2.6,2.6S51,57.4,49.6,57.4z"/>
	<path class="st0" d="M49.6,75.1h-47c-1.4,0-2.6-1.2-2.6-2.6s1.2-2.6,2.6-2.6h47c1.4,0,2.6,1.2,2.6,2.6S51,75.1,49.6,75.1z"/>
	<g>
		<g>
			<path class="st0" d="M74.6,12.6c-0.6,0.5-1.5,0.5-2-0.1l-6.5-6.9v24.7c0,1.1-0.9,2-2,2c-1.1,0-2-0.9-2-2V5.6l-6.4,6.9
				c-0.5,0.6-1.4,0.6-2,0.1c-0.3-0.3-0.5-0.7-0.5-1c0-0.3,0.1-0.7,0.4-1l9.5-10.2c0.5-0.6,1.5-0.6,2,0l9.5,10.2
				C75.1,11.2,75.1,12.1,74.6,12.6z"/>
		</g>
	</g>
</g>
</svg>
