<?xml version="1.0" encoding="utf-8"?>
<!-- Generator: Adobe Illustrator 22.0.1, SVG Export Plug-In . SVG Version: 6.00 Build 0)  -->
<svg version="1.1" id="Layer_1" xmlns="http://www.w3.org/2000/svg" xmlns:xlink="http://www.w3.org/1999/xlink" x="0px" y="0px"
	 viewBox="0 0 75 75" style="enable-background:new 0 0 75 75;" xml:space="preserve">
<style type="text/css">
	.st0{fill:#F7931E;stroke:#F7931E;stroke-width:6;stroke-miterlimit:10;}
</style>
<path class="st0" d="M38,0.5L46.5,28c0.1,0.2,0.3,0.4,0.5,0.4h27.6c0.5,0,0.7,0.6,0.3,0.9L52.5,46.4c-0.2,0.1-0.2,0.3-0.2,0.5
	l8.5,27.6c0.1,0.5-0.4,0.8-0.8,0.5l-22.2-17c-0.2-0.1-0.4-0.1-0.6,0l-22.2,17c-0.4,0.3-0.9-0.1-0.8-0.5l8.5-27.6
	c0.1-0.2,0-0.4-0.2-0.5L0.2,29.3C-0.2,29,0,28.4,0.5,28.4H28c0.2,0,0.4-0.1,0.5-0.4L37,0.5C37.2,0,37.8,0,38,0.5z"/>
</svg>
