<svg xmlns="http://www.w3.org/2000/svg" viewBox="0 0 75.33 75.31"><defs><style>.cls-1{fill:#fff;}</style></defs><title>in-select-icon-white</title><g id="Layer_2" data-name="Layer 2"><g id="Layer_1-2" data-name="Layer 1"><path class="cls-1" d="M72.17,33.53a3.11,3.11,0,0,0-2.84,3.16V67.31a2,2,0,0,1-2,2H8a2,2,0,0,1-2-2V8A2,2,0,0,1,8,6H37A3.11,3.11,0,0,0,40.2,3.16,3,3,0,0,0,37.2,0H5.62A5.62,5.62,0,0,0,0,5.62V69.69a5.62,5.62,0,0,0,5.62,5.62H69.71a5.61,5.61,0,0,0,5.62-5.62V36.52A3,3,0,0,0,72.17,33.53Z"/><path class="cls-1" d="M17.5,26a3,3,0,0,0-4.63.36,3.09,3.09,0,0,0,.38,3.88L29.74,47.42a5.61,5.61,0,0,0,8.3-.21L68.15,12.55a3.11,3.11,0,0,0-.07-4.25,3,3,0,0,0-4.35.19L35.22,41.31a2,2,0,0,1-3,.08Z"/></g></g></svg>