<svg xmlns="http://www.w3.org/2000/svg" viewBox="0 0 75.9 75.89"><title>in-select-multiple-icon-black</title><g id="Layer_2" data-name="Layer 2"><g id="Layer_1-2" data-name="Layer 1"><path d="M72.74,44.46a3.11,3.11,0,0,0-2.84,3.17V67.89a2,2,0,0,1-2,2H25.62a2,2,0,0,1-2-2V25.61a2,2,0,0,1,2-2H47.11A2.91,2.91,0,0,0,49.81,22a3,3,0,0,0-2.7-4.36H23.24a5.61,5.61,0,0,0-5.62,5.62v47a5.61,5.61,0,0,0,5.62,5.62h47a5.62,5.62,0,0,0,5.62-5.62V47.46A3,3,0,0,0,72.74,44.46Z"/><path d="M29.49,6a3,3,0,0,0,3-3.16A3.12,3.12,0,0,0,29.33,0H5.62A5.62,5.62,0,0,0,0,5.62v49.5a3.11,3.11,0,0,0,2.84,3.16,3,3,0,0,0,3.16-3V8A2,2,0,0,1,8,6Z"/><path d="M38.14,34.42a3,3,0,0,0-4.64-.06,3.07,3.07,0,0,0,0,3.89L42.89,50a5.62,5.62,0,0,0,8.22.6L74.17,29.05a3.09,3.09,0,0,0,.59-3.85,3,3,0,0,0-4.61-.62L48.9,44.42A2,2,0,0,1,46,44.2Z"/></g></g></svg>