<svg xmlns="http://www.w3.org/2000/svg" viewBox="0 0 75 75"><defs><style>.cls-1{fill:#fff;}</style></defs><title>in-settings-icon-white</title><g id="Layer_2" data-name="Layer 2"><g id="Layer_1-2" data-name="Layer 1"><path class="cls-1" d="M73,28.5H65.25a1,1,0,0,1-.94-.67,24,24,0,0,0-1-2.46,1,1,0,0,1,.19-1.13L69,18.76a2,2,0,0,0,0-2.82L59.06,6a2,2,0,0,0-2.82,0l-5.48,5.48a1,1,0,0,1-1.13.19,24,24,0,0,0-2.46-1,1,1,0,0,1-.67-.94V2a2,2,0,0,0-2-2h-14a2,2,0,0,0-2,2V9.75a1,1,0,0,1-.67.94,24,24,0,0,0-2.46,1,1,1,0,0,1-1.13-.19L18.76,6a2,2,0,0,0-2.82,0L6,15.94a2,2,0,0,0,0,2.82l5.48,5.48a1,1,0,0,1,.19,1.13,24,24,0,0,0-1,2.46,1,1,0,0,1-.94.67H2a2,2,0,0,0-2,2v14a2,2,0,0,0,2,2H9.75a1,1,0,0,1,.94.67,24,24,0,0,0,1,2.46,1,1,0,0,1-.19,1.13L6,56.24a2,2,0,0,0,0,2.82L15.94,69a2,2,0,0,0,2.82,0l5.48-5.48a1,1,0,0,1,1.13-.19,24,24,0,0,0,2.46,1,1,1,0,0,1,.67.94V73a2,2,0,0,0,2,2h14a2,2,0,0,0,2-2V65.25a1,1,0,0,1,.67-.94,24,24,0,0,0,2.46-1,1,1,0,0,1,1.13.19L56.24,69a2,2,0,0,0,2.82,0L69,59.06a2,2,0,0,0,0-2.82l-5.48-5.48a1,1,0,0,1-.19-1.13,24,24,0,0,0,1-2.46,1,1,0,0,1,.94-.67H73a2,2,0,0,0,2-2v-14A2,2,0,0,0,73,28.5Zm-4,11a1,1,0,0,1-1,1H61.48a2,2,0,0,0-2,1.6,21.16,21.16,0,0,1-1.08,3.61,7.68,7.68,0,0,1-.32.79,21.55,21.55,0,0,1-1.79,3.31,2,2,0,0,0,.24,2.51l3.09,3.09,1.53,1.53a1,1,0,0,1,0,1.42l-2.83,2.83a1,1,0,0,1-1.42,0l-1.53-1.53-3.09-3.09a2,2,0,0,0-2.51-.24,21.55,21.55,0,0,1-3.31,1.79,7.68,7.68,0,0,1-.79.32,21.16,21.16,0,0,1-3.61,1.08,2,2,0,0,0-1.6,2V68a1,1,0,0,1-1,1h-4a1,1,0,0,1-1-1V61.48a2,2,0,0,0-1.6-2,21.16,21.16,0,0,1-3.61-1.08,7.68,7.68,0,0,1-.79-.32,21.55,21.55,0,0,1-3.31-1.79,2,2,0,0,0-2.51.24l-3.09,3.09-1.53,1.53a1,1,0,0,1-1.42,0l-2.83-2.83a1,1,0,0,1,0-1.42l1.53-1.53,3.09-3.09a2,2,0,0,0,.24-2.51,21.55,21.55,0,0,1-1.79-3.31,7.68,7.68,0,0,1-.32-.79,21.16,21.16,0,0,1-1.08-3.61,2,2,0,0,0-2-1.6H7a1,1,0,0,1-1-1v-4a1,1,0,0,1,1-1h6.52a2,2,0,0,0,2-1.6,21.16,21.16,0,0,1,1.08-3.61,7.68,7.68,0,0,1,.32-.79,21.55,21.55,0,0,1,1.79-3.31,2,2,0,0,0-.24-2.51l-3.09-3.09-1.53-1.53a1,1,0,0,1,0-1.42l2.83-2.83a1,1,0,0,1,1.42,0l1.53,1.53,3.09,3.09a2,2,0,0,0,2.51.24,21.55,21.55,0,0,1,3.31-1.79,7.68,7.68,0,0,1,.79-.32,21.16,21.16,0,0,1,3.61-1.08,2,2,0,0,0,1.6-2V7a1,1,0,0,1,1-1h4a1,1,0,0,1,1,1v6.52a2,2,0,0,0,1.6,2,21.16,21.16,0,0,1,3.61,1.08,7.68,7.68,0,0,1,.79.32,21.55,21.55,0,0,1,3.31,1.79,2,2,0,0,0,2.51-.24l3.09-3.09,1.53-1.53a1,1,0,0,1,1.42,0l2.83,2.83a1,1,0,0,1,0,1.42l-1.53,1.53-3.09,3.09a2,2,0,0,0-.24,2.51,21.55,21.55,0,0,1,1.79,3.31,7.68,7.68,0,0,1,.32.79,21.16,21.16,0,0,1,1.08,3.61,2,2,0,0,0,2,1.6H68a1,1,0,0,1,1,1Z"/><path class="cls-1" d="M37.5,27A10.5,10.5,0,1,0,48,37.5,10.51,10.51,0,0,0,37.5,27Zm0,15A4.5,4.5,0,1,1,42,37.5,4.51,4.51,0,0,1,37.5,42Z"/></g></g></svg>