<svg xmlns="http://www.w3.org/2000/svg" xmlns:xlink="http://www.w3.org/1999/xlink" viewBox="0 0 170.1 170.1"><defs><style>.cls-1{fill:url(#linear-gradient);}.cls-2{fill:#fff;}</style><linearGradient id="linear-gradient" x1="85.05" y1="167.6" x2="85.05" y2="2.5" gradientUnits="userSpaceOnUse"><stop offset="0" stop-color="#fcee21"/><stop offset="1" stop-color="#f15a24"/></linearGradient></defs><title>in-shock-icon</title><g id="Layer_2" data-name="Layer 2"><g id="Layer_1-2" data-name="Layer 1"><circle class="cls-1" cx="85.05" cy="85.05" r="82.55"/><path d="M85.05,170.1a85.05,85.05,0,1,1,85.05-85A85.14,85.14,0,0,1,85.05,170.1ZM85.05,5A80.05,80.05,0,1,0,165.1,85.05,80.14,80.14,0,0,0,85.05,5Z"/><ellipse class="cls-2" cx="111.03" cy="57.52" rx="14.77" ry="16.61"/><path d="M111,76.63c-9.52,0-17.27-8.57-17.27-19.11S101.51,38.41,111,38.41,128.31,47,128.31,57.52,120.56,76.63,111,76.63Zm0-33.22c-6.77,0-12.27,6.33-12.27,14.11s5.5,14.11,12.27,14.11,12.28-6.33,12.28-14.11S117.8,43.41,111,43.41Z"/><ellipse class="cls-2" cx="84.34" cy="113.58" rx="20.99" ry="25.03"/><path d="M84.34,141.11c-13,0-23.48-12.35-23.48-27.53S71.39,86.05,84.34,86.05s23.49,12.35,23.49,27.53S97.29,141.11,84.34,141.11Zm0-50.06c-10.19,0-18.48,10.11-18.48,22.53s8.29,22.53,18.48,22.53,18.49-10.11,18.49-22.53S94.54,91.05,84.34,91.05Z"/><ellipse class="cls-2" cx="57.68" cy="57.52" rx="14.77" ry="16.61"/><path d="M57.68,76.63c-9.53,0-17.28-8.57-17.28-19.11s7.75-19.11,17.28-19.11S75,47,75,57.52,67.2,76.63,57.68,76.63Zm0-33.22c-6.77,0-12.28,6.33-12.28,14.11s5.51,14.11,12.28,14.11S70,65.3,70,57.52,64.44,43.41,57.68,43.41Z"/></g></g></svg>