<svg xmlns="http://www.w3.org/2000/svg" viewBox="0 0 76.26 75.42"><title>in-services-reference-icon-black</title><g id="Layer_2" data-name="Layer 2"><g id="Layer_1-2" data-name="Layer 1"><path d="M64.87,35.71A32.51,32.51,0,0,0,32.52,0V7A25.49,25.49,0,0,1,57.85,29.71a24.58,24.58,0,0,1-.05,6A25.48,25.48,0,0,1,17.55,53.17a3,3,0,0,1-1.13-3l0-.18a1.05,1.05,0,0,1,.06-.24,3,3,0,0,1,1.06-1.56l.11-.09,9.49-7.54a5.62,5.62,0,0,1,5.55-.84l4.75,1.86A5.65,5.65,0,0,0,43,40.72l5.58-4.44a3,3,0,0,0,.48-4.21L47.2,29.72l-7.75,6.17-7.55-3-1.17-8,7.76-6.17-1.87-2.35a3,3,0,0,0-4.21-.48l-5.58,4.44a5.6,5.6,0,0,0-2.06,5.21l.73,5.05a5.61,5.61,0,0,1-2.06,5.21L14,43.38l-.06,0a3.2,3.2,0,0,1-1.81.72,1.41,1.41,0,0,1-.29,0h-.1A3.05,3.05,0,0,1,9,42.34,25.51,25.51,0,0,1,32.51,7V0h0A32.52,32.52,0,1,0,53.74,57.13c.69-.58,1.35-1.21,2-1.87s1.25-1.33,1.82-2A32.36,32.36,0,0,0,64.87,35.71Z"/><path d="M75.21,69.41,63.09,57.56a3.46,3.46,0,0,0-2.44-1,3.65,3.65,0,0,0-.74.08,3.47,3.47,0,0,0-2.7,2.76h0a3.49,3.49,0,0,0,1,3.15L70.31,74.42a3.53,3.53,0,0,0,2.45,1,3.51,3.51,0,0,0,2.45-6Z"/></g></g></svg>