<?xml version="1.0" encoding="utf-8"?>
<!-- Generator: Adobe Illustrator 22.0.1, SVG Export Plug-In . SVG Version: 6.00 Build 0)  -->
<svg version="1.1" id="Layer_1" xmlns="http://www.w3.org/2000/svg" xmlns:xlink="http://www.w3.org/1999/xlink" x="0px" y="0px"
	 viewBox="0 0 75 75" style="enable-background:new 0 0 75 75;" xml:space="preserve">
<style type="text/css">
	.st0{fill:#B3B3B3;}
</style>
<g>
	<path d="M37.1,19.5L20.3,0.8c-0.8-0.9-2.2-0.9-3,0L0.5,19.6c-1.2,1.3-0.2,3.3,1.5,3.3h7.7c1.7,0,3,1.3,3,3v44.3
		c0,2.6,2.1,4.7,4.7,4.7h2.7c2.6,0,4.7-2.1,4.7-4.7V26c0-1.7,1.3-3,3-3h7.7C37.3,22.9,38.2,20.8,37.1,19.5z"/>
	<path class="st0" d="M74.5,55.5L57.7,74.2c-0.8,0.9-2.2,0.9-3,0L37.9,55.4c-1.2-1.3-0.2-3.3,1.5-3.3h7.7c1.7,0,3-1.3,3-3V4.7
		c0-2.6,2.1-4.7,4.7-4.7h2.7c2.6,0,4.7,2.1,4.7,4.7V49c0,1.7,1.3,3,3,3h7.7C74.7,52.1,75.6,54.2,74.5,55.5z"/>
</g>
</svg>
