<svg xmlns="http://www.w3.org/2000/svg" viewBox="0 0 75 55"><defs><style>.cls-1{fill:#fff;}</style></defs><title>in-service-charge-icon-white</title><g id="Layer_2" data-name="Layer 2"><g id="Layer_1-2" data-name="Layer 1"><path class="cls-1" d="M69.6,0H5.4A5.4,5.4,0,0,0,0,5.4V49.6A5.4,5.4,0,0,0,5.4,55H69.6A5.4,5.4,0,0,0,75,49.6V5.4A5.4,5.4,0,0,0,69.6,0ZM69,47a2,2,0,0,1-2,2H8a2,2,0,0,1-2-2V22.81H69Zm0-30.19H6V8A2,2,0,0,1,8,6H67a2,2,0,0,1,2,2Z"/><path class="cls-1" d="M32.18,43H60.82a3,3,0,0,0,0-6H32.18a3,3,0,0,0,0,6Z"/></g></g></svg>