<?xml version="1.0" encoding="utf-8"?>
<!-- Generator: Adobe Illustrator 22.0.1, SVG Export Plug-In . SVG Version: 6.00 Build 0)  -->
<svg version="1.1" id="Layer_1" xmlns="http://www.w3.org/2000/svg" xmlns:xlink="http://www.w3.org/1999/xlink" x="0px" y="0px"
	 viewBox="0 0 75 75" style="enable-background:new 0 0 75 75;" xml:space="preserve">
<style type="text/css">
	.st0{fill:#B3B3B3;}
</style>
<path class="st0" d="M37.1,19.4L20.3,0.7c-0.8-0.9-2.2-0.9-3,0L0.4,19.5c-1.2,1.3-0.2,3.3,1.5,3.3h7.7c1.7,0,3,1.3,3,3v44.4
	c0,2.6,2.1,4.7,4.7,4.7H20c2.6,0,4.7-2.1,4.7-4.7V25.9c0-1.7,1.3-3,3-3h7.7C37.3,22.9,38.2,20.8,37.1,19.4z"/>
<path d="M74.6,55.6L57.8,74.3c-0.8,0.9-2.2,0.9-3,0L37.9,55.5c-1.2-1.3-0.2-3.3,1.5-3.3h7.7c1.7,0,3-1.3,3-3V4.7
	C50.2,2,52.3,0,54.9,0h2.7c2.6,0,4.7,2.1,4.7,4.7v44.4c0,1.7,1.3,3,3,3H73C74.8,52.1,75.7,54.2,74.6,55.6z"/>
</svg>
