<svg xmlns="http://www.w3.org/2000/svg" viewBox="0 0 65 65"><defs><style>.cls-1{fill:#12cd9c;}.cls-2{fill:#fff;}</style></defs><title>in-smile-face-green_1</title><g id="Layer_2" data-name="Layer 2"><g id="Layer_1-2" data-name="Layer 1"><circle class="cls-1" cx="32.5" cy="32.5" r="32.5"/><path class="cls-2" d="M12,38s7,13,20,13S52,38,52,38"/><path d="M32,53C18,53,10.55,39.52,10.24,39a2,2,0,1,1,3.52-1.9h0c.06.12,6.62,12,18.24,12s18.17-11.83,18.24-12A2,2,0,0,1,53.76,39C53.45,39.52,46,53,32,53Z"/><path d="M24.86,27.63a2,2,0,0,1-1.72-1c-.08-.13-2-3.28-5.48-3.28s-5.47,3.24-5.49,3.28a2,2,0,1,1-3.44-2c.13-.22,3.17-5.24,8.93-5.24s8.79,5,8.92,5.24a2,2,0,0,1-1.72,3Z"/><path d="M51.86,27.63a2,2,0,0,1-1.72-1c-.08-.13-2-3.28-5.48-3.28s-5.47,3.24-5.49,3.28a2,2,0,1,1-3.44-2c.13-.22,3.17-5.24,8.93-5.24s8.79,5,8.92,5.24a2,2,0,0,1-1.72,3Z"/></g></g></svg>