<svg xmlns="http://www.w3.org/2000/svg" viewBox="0 0 65 65"><defs><style>.cls-1{fill:#ff8181;}.cls-2{fill:#fff;}</style></defs><title>in-sad-face-red_1</title><g id="Layer_2" data-name="Layer 2"><g id="Layer_1-2" data-name="Layer 1"><circle class="cls-1" cx="32.5" cy="32.5" r="32.5"/><path class="cls-2" d="M13.27,51s7-13,20-13,20,13,20,13"/><path d="M53.27,53a2,2,0,0,1-1.76-1c-.06-.12-6.62-12-18.24-12S15.1,51.83,15,52a2,2,0,1,1-3.52-1.9c.31-.57,7.73-14,21.76-14S54.72,49.48,55,50.05a2,2,0,0,1-.81,2.71A2,2,0,0,1,53.27,53Z"/><path d="M18.93,27.63c-5.76,0-8.8-5-8.92-5.24a2,2,0,0,1,3.43-2.05c.1.16,2.06,3.29,5.49,3.29s5.46-3.24,5.48-3.28a2,2,0,1,1,3.44,2C27.73,22.61,24.69,27.63,18.93,27.63Z"/><path d="M45.93,27.63c-5.76,0-8.8-5-8.92-5.24a2,2,0,0,1,3.43-2.05c.1.16,2.06,3.29,5.49,3.29s5.46-3.24,5.48-3.28a2,2,0,0,1,3.44,2C54.73,22.61,51.69,27.63,45.93,27.63Z"/></g></g></svg>