<svg xmlns="http://www.w3.org/2000/svg" viewBox="0 0 75 75"><title>in-table-icon</title><g id="Layer_2" data-name="Layer 2"><g id="Layer_1-2" data-name="Layer 1"><path d="M52,0H5.62A5.62,5.62,0,0,0,0,5.62V69.38A5.62,5.62,0,0,0,5.62,75H69.38A5.62,5.62,0,0,0,75,69.38V5.62A5.62,5.62,0,0,0,69.38,0ZM46,7.23V21.77A1.23,1.23,0,0,1,44.77,23H30.23A1.23,1.23,0,0,1,29,21.77V7.23A1.23,1.23,0,0,1,30.23,6H44.77A1.23,1.23,0,0,1,46,7.23Zm0,23V44.77A1.23,1.23,0,0,1,44.77,46H30.23A1.23,1.23,0,0,1,29,44.77V30.23A1.23,1.23,0,0,1,30.23,29H44.77A1.23,1.23,0,0,1,46,30.23ZM8,6H21.77A1.23,1.23,0,0,1,23,7.23V21.77A1.23,1.23,0,0,1,21.77,23H7.23A1.23,1.23,0,0,1,6,21.77V8A2,2,0,0,1,8,6ZM7.23,29H21.77A1.23,1.23,0,0,1,23,30.23V44.77A1.23,1.23,0,0,1,21.77,46H7.23A1.23,1.23,0,0,1,6,44.77V30.23A1.23,1.23,0,0,1,7.23,29ZM6,67V53.23A1.23,1.23,0,0,1,7.23,52H21.77A1.23,1.23,0,0,1,23,53.23V67.77A1.23,1.23,0,0,1,21.77,69H8A2,2,0,0,1,6,67Zm23,.77V53.23A1.23,1.23,0,0,1,30.23,52H44.77A1.23,1.23,0,0,1,46,53.23V67.77A1.23,1.23,0,0,1,44.77,69H30.23A1.23,1.23,0,0,1,29,67.77ZM67,69H53.23A1.23,1.23,0,0,1,52,67.77V53.23A1.23,1.23,0,0,1,53.23,52H67.77A1.23,1.23,0,0,1,69,53.23V67A2,2,0,0,1,67,69Zm.77-23H53.23A1.23,1.23,0,0,1,52,44.77V30.23A1.23,1.23,0,0,1,53.23,29H67.77A1.23,1.23,0,0,1,69,30.23V44.77A1.23,1.23,0,0,1,67.77,46ZM52,21.77V7.23A1.23,1.23,0,0,1,53.23,6H67a2,2,0,0,1,2,2V21.77A1.23,1.23,0,0,1,67.77,23H53.23A1.23,1.23,0,0,1,52,21.77Z"/></g></g></svg>