<svg xmlns="http://www.w3.org/2000/svg" viewBox="0 0 68.16 57.32"><defs><style>.cls-1{fill:#fff;}</style></defs><title>in-transfer-icon-white</title><g id="Layer_2" data-name="Layer 2"><g id="Layer_1-2" data-name="Layer 1"><path class="cls-1" d="M3.17,22.32h62a3,3,0,0,0,1.77-5.43L44.53.58a3,3,0,0,0-4.29.79,3.11,3.11,0,0,0,.89,4.15l12.33,9a1,1,0,0,1-.59,1.81H3a3,3,0,0,0-3,3.16A3.13,3.13,0,0,0,3.17,22.32Z"/><path class="cls-1" d="M65,35H3a3,3,0,0,0-1.77,5.42L23.63,56.74a3,3,0,0,0,4.38-1,3.08,3.08,0,0,0-1-4l-12.35-9A1,1,0,0,1,15.29,41H65.16a3,3,0,0,0,3-3.16A3.11,3.11,0,0,0,65,35Z"/></g></g></svg>