<?xml version="1.0" encoding="utf-8"?>
<!-- Generator: Adobe Illustrator 22.0.1, SVG Export Plug-In . SVG Version: 6.00 Build 0)  -->
<svg version="1.1" id="Layer_1" xmlns="http://www.w3.org/2000/svg" xmlns:xlink="http://www.w3.org/1999/xlink" x="0px" y="0px"
	 viewBox="0 0 75 75" style="enable-background:new 0 0 75 75;" xml:space="preserve">
<style type="text/css">
	.st0{fill:#E66666;}
</style>
<g>
	<path class="st0" d="M72,9.7l-68.9,0c-1.6,0-3.1,1.2-3.2,2.9c-0.1,1.7,1.3,3.1,3,3.1h3.2c1.1,0,1.9,0.8,2,1.9l3.2,52
		c0.2,3,2.6,5.3,5.6,5.3h40.9c3,0,5.4-2.3,5.6-5.3l3.2-52c0.1-1.1,0.9-1.9,2-1.9l3,0c1.6,0,3.1-1.2,3.2-2.9
		C75.1,11.1,73.7,9.7,72,9.7z M55.7,68.8H19.3c-1.1,0-1.9-0.8-2-1.9l-3.1-49.1c-0.1-1.2,0.8-2.1,2-2.1h42.6c1.2,0,2.1,1,2,2.1
		l-3.1,49.1C57.6,68,56.8,68.8,55.7,68.8z"/>
	<path class="st0" d="M31.1,6.2l12.6,0c1.6,0,3.1-1.2,3.2-2.9c0.1-1.7-1.3-3.1-3-3.1l-12.6,0c-1.6,0-3.1,1.2-3.2,2.9
		C28,4.8,29.4,6.2,31.1,6.2z"/>
</g>
</svg>
