<svg xmlns="http://www.w3.org/2000/svg" viewBox="0 0 75.05 74.63"><defs><style>.cls-1{fill:#fff;}</style></defs><title>in-trash-icon-white</title><g id="Layer_2" data-name="Layer 2"><g id="Layer_1-2" data-name="Layer 1"><path class="cls-1" d="M72.05,9.5H3.2A3.15,3.15,0,0,0,0,12.36,3,3,0,0,0,3,15.5H6.21a2,2,0,0,1,2,1.88l3.24,52a5.63,5.63,0,0,0,5.61,5.27H58a5.62,5.62,0,0,0,5.61-5.27l3.25-52a2,2,0,0,1,2-1.88h3A3.13,3.13,0,0,0,75,12.64,3,3,0,0,0,72.05,9.5ZM55.72,68.63H19.3a2,2,0,0,1-2-1.87L14.23,17.62a2,2,0,0,1,2-2.12H58.79a2,2,0,0,1,2,2.12L57.71,66.76A2,2,0,0,1,55.72,68.63Z"/><path class="cls-1" d="M31.12,6H43.7a3.14,3.14,0,0,0,3.2-2.86A3,3,0,0,0,43.9,0H31.31a3.13,3.13,0,0,0-3.19,2.86A3,3,0,0,0,31.12,6Z"/></g></g></svg>