<svg xmlns="http://www.w3.org/2000/svg" viewBox="0 0 68 75"><defs><style>.cls-1{fill:#b3b3b3;}</style></defs><title>In-user-icon</title><g id="Layer_2" data-name="Layer 2"><g id="Layer_1-2" data-name="Layer 1"><path class="cls-1" d="M46.15,31.09a18.5,18.5,0,0,1-24.3,0A34.78,34.78,0,0,0,0,63.58C0,82.8,17,72,35.79,72S68,82.8,68,63.58A34.78,34.78,0,0,0,46.15,31.09Z"/><path class="cls-1" d="M28.7,29.21a12.89,12.89,0,0,0,10.6,0,15.21,15.21,0,0,0,8.68-14C48,6.79,41.72,0,34,0S20,6.79,20,15.18A15.21,15.21,0,0,0,28.7,29.21Z"/></g></g></svg>