<?xml version="1.0" encoding="utf-8"?>
<!-- Generator: Adobe Illustrator 22.0.1, SVG Export Plug-In . SVG Version: 6.00 Build 0)  -->
<svg version="1.1" id="Layer_1" xmlns="http://www.w3.org/2000/svg" xmlns:xlink="http://www.w3.org/1999/xlink" x="0px" y="0px"
	 viewBox="0 0 75 75" style="enable-background:new 0 0 75 75;" xml:space="preserve">
<g>
	<path d="M40.5,62.3V17.6c0-1,1.2-1.4,1.8-0.6l12.2,16.9c0.9,1.3,2.8,1.8,4.1,0.9c1.5-0.9,1.8-2.9,0.8-4.3L37.5,0L15.6,30.5
		C15.2,31,15,31.6,15,32.2c0,1,0.5,2.1,1.5,2.6c1.3,0.8,3.1,0.3,4-1L32.7,17c0.6-0.8,1.8-0.4,1.8,0.6v44.9c0,1.7,1.4,3.1,3.2,3
		C39.3,65.3,40.5,63.9,40.5,62.3z"/>
	<path d="M71.6,75.3H3.4c-1.9,0-3.4-1.3-3.4-3s1.5-3,3.4-3h68.3c1.9,0,3.4,1.3,3.4,3S73.5,75.3,71.6,75.3z"/>
</g>
</svg>
