<svg xmlns="http://www.w3.org/2000/svg" viewBox="0 0 70.9 41.25"><defs><style>.cls-1{fill:#fff;}</style></defs><title>in-view-detail-white</title><g id="Layer_2" data-name="Layer 2"><g id="Layer_1-2" data-name="Layer 1"><path class="cls-1" d="M35.45,0C20.59,0,7.75,10.62,1.68,16.62a5.61,5.61,0,0,0,0,8c6.07,6,18.91,16.62,33.77,16.62s27.7-10.62,33.77-16.62a5.61,5.61,0,0,0,0-8C63.15,10.62,50.31,0,35.45,0ZM58.34,26.16c-5.46,4.15-13.86,9.09-22.89,9.09C24,35.25,13.64,27.54,7.72,22.1a2,2,0,0,1,0-3c1.37-1.27,3-2.66,4.83-4.05C18,10.94,26.42,6,35.45,6c11.41,0,21.8,7.71,27.72,13.15a2,2,0,0,1,0,3C61.79,23.38,60.17,24.77,58.34,26.16Z"/><path class="cls-1" d="M24.45,20.62a11,11,0,1,0,11-11A11,11,0,0,0,24.45,20.62Zm16,0a5,5,0,1,1-5-5A5,5,0,0,1,40.45,20.62Z"/></g></g></svg>