<svg xmlns="http://www.w3.org/2000/svg" viewBox="0 0 38 74.3"><title>in-vendor-black</title><g id="Layer_2" data-name="Layer 2"><g id="Layer_1-2" data-name="Layer 1"><path d="M15.62,42h6.76A5.62,5.62,0,0,0,28,36.38V20.62A5.62,5.62,0,0,0,22.38,15H15.62A5.62,5.62,0,0,0,10,20.62V36.38A5.62,5.62,0,0,0,15.62,42ZM17,21h4a1,1,0,0,1,1,1V35a1,1,0,0,1-1,1H17a1,1,0,0,1-1-1V22A1,1,0,0,1,17,21Z"/><path d="M12.84,46.7A3.12,3.12,0,0,0,10,49.87V71.13a3.12,3.12,0,0,0,2.84,3.17,3,3,0,0,0,3.16-3V49.7A3,3,0,0,0,12.84,46.7Z"/><path d="M24.84,46.7A3.12,3.12,0,0,0,22,49.87V71.13a3.12,3.12,0,0,0,2.84,3.17,3,3,0,0,0,3.16-3V49.7A3,3,0,0,0,24.84,46.7Z"/><circle cx="19" cy="5" r="5"/><path d="M2.84,14.7A3.12,3.12,0,0,0,0,17.87V39.13A3.12,3.12,0,0,0,2.84,42.3,3,3,0,0,0,6,39.3V17.7A3,3,0,0,0,2.84,14.7Z"/><path d="M34.84,14.7A3.12,3.12,0,0,0,32,17.87V39.13a3.12,3.12,0,0,0,2.84,3.17,3,3,0,0,0,3.16-3V17.7A3,3,0,0,0,34.84,14.7Z"/></g></g></svg>