<svg xmlns="http://www.w3.org/2000/svg" viewBox="0 0 75 73.5"><title>in-work-request-icon-black</title><g id="Layer_2" data-name="Layer 2"><g id="Layer_1-2" data-name="Layer 1"><path d="M69.38,0H5.62A5.62,5.62,0,0,0,0,5.62V53.38A5.62,5.62,0,0,0,5.62,59H23.44a5.61,5.61,0,0,1,4.61,2.41l7.81,11.23a2,2,0,0,0,3.28,0L47,61.41A5.61,5.61,0,0,1,51.56,59H69.38A5.62,5.62,0,0,0,75,53.38V5.62A5.62,5.62,0,0,0,69.38,0ZM40.22,60.57l-1.9,2.74a1,1,0,0,1-1.64,0l-1.9-2.74A1,1,0,0,1,35.6,59h3.8A1,1,0,0,1,40.22,60.57ZM69,51a2,2,0,0,1-2,2H8a2,2,0,0,1-2-2V8A2,2,0,0,1,8,6H67a2,2,0,0,1,2,2Z"/><path d="M56.57,24.51l-7.75,6.17-7.55-2.95-1.17-8,7.76-6.17L46,11.2a3,3,0,0,0-4.21-.48L36.2,15.16a5.6,5.6,0,0,0-2.06,5.21l.73,5.05a5.61,5.61,0,0,1-2.06,5.21l-9.55,7.59a3.18,3.18,0,0,1-2.1.73A4.89,4.89,0,0,0,17.8,40a5,5,0,0,0,5.43,8.34,5,5,0,0,0,2.59-3.59A3,3,0,0,1,26.94,43l9.6-7.63a5.62,5.62,0,0,1,5.55-.84l4.75,1.86a5.65,5.65,0,0,0,5.54-.84L58,31.07a3,3,0,0,0,.48-4.21Z"/></g></g></svg>