<svg xmlns="http://www.w3.org/2000/svg" viewBox="0 0 58.56 75"><title>in-workorder-icon-black</title><g id="Layer_2" data-name="Layer 2"><g id="Layer_1-2" data-name="Layer 1"><path d="M52.94,12.33H46.67A2,2,0,0,1,44.79,11a16.44,16.44,0,0,0-31,0,2,2,0,0,1-1.88,1.35H5.62A5.62,5.62,0,0,0,0,18V69.38A5.62,5.62,0,0,0,5.62,75H52.94a5.62,5.62,0,0,0,5.62-5.62V18A5.61,5.61,0,0,0,52.94,12.33ZM52.4,66.84a2,2,0,0,1-2,2H8.16a2,2,0,0,1-2-2V20.49a2,2,0,0,1,2-2H17a2,2,0,0,0,2-2v0c0-.35,0-.7,0-1.05h0c0-.34.09-.67.15-1a10.28,10.28,0,0,1,20.14,0c.06.33.11.66.15,1h0c0,.35,0,.7,0,1.05v0a2,2,0,0,0,2,2H50.4a2,2,0,0,1,2,2Z"/><path d="M43.44,27H27.29a3.11,3.11,0,0,0-3.16,2.84,3,3,0,0,0,3,3.16H43.27a3.13,3.13,0,0,0,3.17-2.84A3,3,0,0,0,43.44,27Z"/><path d="M17.4,27H15.29a3.11,3.11,0,0,0-3.16,2.84,3,3,0,0,0,3,3.16h2.11a3.11,3.11,0,0,0,3.16-2.84A3,3,0,0,0,17.4,27Z"/><path d="M43.44,41H27.29a3.11,3.11,0,0,0-3.16,2.84,3,3,0,0,0,3,3.16H43.27a3.13,3.13,0,0,0,3.17-2.84A3,3,0,0,0,43.44,41Z"/><path d="M17.4,41H15.29a3.11,3.11,0,0,0-3.16,2.84,3,3,0,0,0,3,3.16h2.11a3.11,3.11,0,0,0,3.16-2.84A3,3,0,0,0,17.4,41Z"/><path d="M43.44,55H27.29a3.11,3.11,0,0,0-3.16,2.84,3,3,0,0,0,3,3.16H43.27a3.13,3.13,0,0,0,3.17-2.84A3,3,0,0,0,43.44,55Z"/><path d="M17.4,55H15.29a3.11,3.11,0,0,0-3.16,2.84,3,3,0,0,0,3,3.16h2.11a3.11,3.11,0,0,0,3.16-2.84A3,3,0,0,0,17.4,55Z"/><circle cx="29.28" cy="15.5" r="3"/></g></g></svg>