<svg xmlns="http://www.w3.org/2000/svg" viewBox="0 0 75 75"><defs><style>.cls-1{fill:#fff;}</style></defs><title>in-wiget-group-icon-white</title><g id="Layer_2" data-name="Layer 2"><g id="Layer_1-2" data-name="Layer 1"><path class="cls-1" d="M0,5.62V69.38A5.62,5.62,0,0,0,5.62,75H69.38A5.62,5.62,0,0,0,75,69.38V5.62A5.62,5.62,0,0,0,69.38,0H5.62A5.62,5.62,0,0,0,0,5.62ZM66,69H9a3,3,0,0,1-3-3V9A3,3,0,0,1,9,6H66a3,3,0,0,1,3,3V66A3,3,0,0,1,66,69Z"/><path class="cls-1" d="M31.5,12h-16a3,3,0,0,0-3,3V31a3,3,0,0,0,3,3h16a3,3,0,0,0,3-3V15A3,3,0,0,0,31.5,12Zm-4,16h-8a1,1,0,0,1-1-1V19a1,1,0,0,1,1-1h8a1,1,0,0,1,1,1v8A1,1,0,0,1,27.5,28Z"/><path class="cls-1" d="M59.5,12h-16a3,3,0,0,0-3,3V31a3,3,0,0,0,3,3h16a3,3,0,0,0,3-3V15A3,3,0,0,0,59.5,12Zm-4,16h-8a1,1,0,0,1-1-1V19a1,1,0,0,1,1-1h8a1,1,0,0,1,1,1v8A1,1,0,0,1,55.5,28Z"/><path class="cls-1" d="M31.5,41h-16a3,3,0,0,0-3,3V60a3,3,0,0,0,3,3h16a3,3,0,0,0,3-3V44A3,3,0,0,0,31.5,41Zm-4,16h-8a1,1,0,0,1-1-1V48a1,1,0,0,1,1-1h8a1,1,0,0,1,1,1v8A1,1,0,0,1,27.5,57Z"/><path class="cls-1" d="M59.5,41h-16a3,3,0,0,0-3,3V60a3,3,0,0,0,3,3h16a3,3,0,0,0,3-3V44A3,3,0,0,0,59.5,41Zm-4,16h-8a1,1,0,0,1-1-1V48a1,1,0,0,1,1-1h8a1,1,0,0,1,1,1v8A1,1,0,0,1,55.5,57Z"/></g></g></svg>