<?xml version="1.0" encoding="utf-8"?>
<!-- Generator: Adobe Illustrator 22.0.0, SVG Export Plug-In . SVG Version: 6.00 Build 0)  -->
<svg version="1.1" id="Layer_1" xmlns="http://www.w3.org/2000/svg" xmlns:xlink="http://www.w3.org/1999/xlink" x="0px" y="0px"
	 viewBox="0 0 75 75" style="enable-background:new 0 0 75 75;" xml:space="preserve">
<style type="text/css">
	.st0{fill:#FFFFFF;stroke:#E66666;stroke-width:6;stroke-linejoin:round;stroke-miterlimit:10;}
	.st1{fill:#E66666;}
</style>
<g>
	<path class="st0" d="M30.9,10.6L4.3,56.7C1.3,61.8,5,68.2,10.9,68.2h53.2c5.9,0,9.6-6.4,6.6-11.5L44.1,10.6
		C41.2,5.5,33.8,5.5,30.9,10.6z"/>
	<g>
		<path class="st1" d="M34.1,55.4c-0.2-2.1,1.2-3.6,3.1-3.6c1.8,0,3.2,1.6,3.1,3.4c-0.1,1.8-1.2,3.1-3.1,3.2
			C35.6,58.3,34.2,57,34.1,55.4z M35.3,45.8l-0.6-21.2c0-1.4,1.1-2.5,2.4-2.5h0.1c1.4,0,2.5,1.1,2.4,2.5L39,45.8
			c0,0.9-0.8,1.7-1.7,1.7h-0.2C36.1,47.5,35.4,46.7,35.3,45.8z"/>
	</g>
</g>
</svg>
