<svg xmlns="http://www.w3.org/2000/svg" viewBox="0 0 34.61 16.87"><defs><style>.cls-1{fill:#f4c000;}.cls-2{fill:#fff;}</style></defs><title>instanta-fleet-logo-white-name</title><g id="Layer_2" data-name="Layer 2"><g id="Layer_1-2" data-name="Layer 1"><path class="cls-1" d="M5.8,0a5.8,5.8,0,1,0,5.8,5.8h0A5.8,5.8,0,0,0,5.8,0ZM9.28,6.34a.22.22,0,0,1-.21.23H8.86a.09.09,0,0,0-.1.1h0v1a.22.22,0,0,1-.21.23h-.8a.22.22,0,0,1-.21-.23h0v-1a.11.11,0,0,0-.11-.11H4.16a.11.11,0,0,0-.1.11v1a.22.22,0,0,1-.21.23H3.06a.22.22,0,0,1-.22-.22h0v-1a.11.11,0,0,0-.1-.11H2.53a.22.22,0,0,1-.21-.23h0V5a.22.22,0,0,1,.21-.23h.24a.11.11,0,0,0,.1-.09l.29-1.57a.21.21,0,0,1,.21-.18H8.23a.22.22,0,0,1,.21.18l.29,1.57a.11.11,0,0,0,.1.09h.23A.22.22,0,0,1,9.28,5h0Z"/><path class="cls-1" d="M8,3.42a.21.21,0,0,0-.21-.16h-4a.21.21,0,0,0-.21.16l-.29,1a.23.23,0,0,0,.16.28H8.12a.23.23,0,0,0,.22-.24s0,0,0,0Z"/><polygon class="cls-2" points="14.55 14.53 15.66 14.53 15.66 12.26 18.47 12.26 18.47 11.2 15.66 11.2 15.66 9.93 18.66 9.93 18.66 8.93 14.55 8.93 14.55 14.53"/><rect class="cls-2" x="19.82" y="8.77" width="1" height="5.76"/><path class="cls-2" d="M23.91,10.63h-.13a1.91,1.91,0,0,0-1.82,2v.16a1.92,1.92,0,0,0,2,1.84A2.36,2.36,0,0,0,25.61,14L25,13.37a1.64,1.64,0,0,1-1,.37.94.94,0,0,1-1-.8h2.76v-.4A1.88,1.88,0,0,0,23.91,10.63ZM23,12.22a.86.86,0,0,1,1.71,0Z"/><path class="cls-2" d="M28.65,10.63h-.18a1.91,1.91,0,0,0-1.82,2v.16a1.92,1.92,0,0,0,2,1.84A2.36,2.36,0,0,0,30.3,14l-.61-.67a1.58,1.58,0,0,1-1,.37.94.94,0,0,1-1-.8h2.76a2.16,2.16,0,0,0,0-.36v0A1.86,1.86,0,0,0,28.65,10.63Zm-1,1.59a.87.87,0,0,1,1.72,0Z"/><path class="cls-2" d="M34.22,13.41a1.49,1.49,0,0,1-.73.25c-.32,0-.58-.17-.58-.66V11.58h1.41l0-.93H32.87V9.5h-1v1.16h-.75v.93h.75v1.5c0,1,.45,1.55,1.45,1.55a2.22,2.22,0,0,0,1.29-.41Z"/><rect class="cls-2" x="14.37" y="3.49" width="0.53" height="2.4"/><path class="cls-2" d="M14.63,3h0A.36.36,0,0,0,15,2.66a.38.38,0,0,0-.37-.37h0a.36.36,0,0,0-.35.37v0A.35.35,0,0,0,14.63,3Z"/><path class="cls-2" d="M16.19,4.56v0a.6.6,0,0,1,.62-.58c.35,0,.56.22.56.63V5.89h.53V4.31a.94.94,0,0,0-1-.88.84.84,0,0,0-.73.35V3.49h-.52v2.4h.52Z"/><path class="cls-2" d="M20.6,5.13c0-.41-.31-.64-.83-.71h-.25c-.22,0-.39-.08-.39-.25s.16-.28.45-.28a1.49,1.49,0,0,1,.74.2l.29-.32a1.84,1.84,0,0,0-1-.25c-.62,0-1,.38-1,.77s.29.63.82.7h.25c.28,0,.41.08.41.26s-.18.29-.54.29a1.19,1.19,0,0,1-.79-.24l-.25.39a1.77,1.77,0,0,0,1,.31A1,1,0,0,0,20.6,5.13Z"/><path class="cls-2" d="M23,5.7l-.2-.41a1,1,0,0,1-.49.16c-.21,0-.38-.13-.38-.45V4h.92V3.49h-.92V2.77h-.52v.72h-.48V4h.48V5c0,.64.31.93.86.93A1.27,1.27,0,0,0,23,5.7Z"/><path class="cls-2" d="M25.27,3.78a.93.93,0,0,0-.76-.35h0a1.21,1.21,0,0,0-1.16,1.26v0A1.2,1.2,0,0,0,24.51,6a.93.93,0,0,0,.76-.35v.29h.52V3.49h-.52Zm0,1.08a.73.73,0,1,1-1.45-.17.49.49,0,0,1,0-.17.73.73,0,0,1,1.45.17A.49.49,0,0,1,25.3,4.86Z"/><path class="cls-2" d="M27.13,4.56V4.49a.59.59,0,0,1,.62-.56c.35,0,.56.22.56.63V5.89h.53V4.31a.94.94,0,0,0-1-.88.84.84,0,0,0-.73.35V3.49h-.52v2.4h.52Z"/><path class="cls-2" d="M31.18,5.29a1,1,0,0,1-.48.16c-.21,0-.38-.13-.38-.45V4h.92V3.49h-.92V2.77h-.53v.72h-.47V4h.47V5c0,.64.32.93.87.93a1.27,1.27,0,0,0,.73-.24Z"/><path class="cls-2" d="M32.9,6a.91.91,0,0,0,.75-.4v.29h.53V3.49h-.53v.34a.91.91,0,0,0-.75-.35h0A1.21,1.21,0,0,0,31.7,4.74v0A1.2,1.2,0,0,0,32.9,6Zm-.66-1.31a.72.72,0,1,1,1.44,0h0a.72.72,0,1,1-1.44,0Z"/><path class="cls-1" d="M5.8,12.92a1.29,1.29,0,0,0-1.29,1.29v1.37a1.29,1.29,0,0,0,2.58,0V14.21A1.29,1.29,0,0,0,5.8,12.92Z"/></g></g></svg>