<svg xmlns="http://www.w3.org/2000/svg" viewBox="0 0 34.61 16.87"><defs><style>.cls-1{fill:#f4c000;}</style></defs><title>instanta-fleet</title><g id="Layer_2" data-name="Layer 2"><g id="Layer_1-2" data-name="Layer 1"><path class="cls-1" d="M5.8,0a5.8,5.8,0,1,0,5.8,5.8A5.8,5.8,0,0,0,5.8,0ZM9.28,6.34a.22.22,0,0,1-.22.23h-.2a.1.1,0,0,0-.1.11v1a.22.22,0,0,1-.22.23H7.75a.22.22,0,0,1-.21-.23v-1a.11.11,0,0,0-.11-.11H4.16a.11.11,0,0,0-.1.11v1a.22.22,0,0,1-.21.23H3.06a.22.22,0,0,1-.22-.23v-1a.11.11,0,0,0-.1-.11H2.53a.22.22,0,0,1-.21-.23V5a.22.22,0,0,1,.21-.23h.24a.11.11,0,0,0,.1-.09l.29-1.57a.21.21,0,0,1,.21-.18H8.23a.22.22,0,0,1,.21.18l.29,1.57a.11.11,0,0,0,.1.09h.23A.22.22,0,0,1,9.28,5Z"/><path class="cls-1" d="M8,3.42a.21.21,0,0,0-.21-.16H3.77a.21.21,0,0,0-.21.16l-.29,1a.23.23,0,0,0,.21.29H8.12a.23.23,0,0,0,.21-.29Z"/><path d="M18.47,12.26H15.66v2.27H14.55V8.93h4.11v1h-3v1.27h2.81Z"/><path d="M20.82,14.53h-1V8.77h1Z"/><path d="M25.76,12.58c0,.12,0,.27,0,.36H23a.94.94,0,0,0,1,.8,1.61,1.61,0,0,0,1-.37l.61.67a2.37,2.37,0,0,1-1.65.59,1.92,1.92,0,0,1-2-2,1.91,1.91,0,0,1,1.95-2A1.88,1.88,0,0,1,25.76,12.58ZM23,12.22h1.71a.84.84,0,0,0-.84-.77A.83.83,0,0,0,23,12.22Z"/><path d="M30.45,12.58a2,2,0,0,1,0,.36H27.69a.93.93,0,0,0,1,.8,1.59,1.59,0,0,0,1-.37l.61.67a2.37,2.37,0,0,1-1.65.59,1.92,1.92,0,0,1-2-2,1.91,1.91,0,0,1,2-2A1.86,1.86,0,0,1,30.45,12.58Zm-2.76-.36h1.72a.87.87,0,0,0-1.72,0Z"/><path d="M34.32,11.58H32.91V13c0,.49.26.66.58.66a1.49,1.49,0,0,0,.73-.25l.39.82a2.2,2.2,0,0,1-1.29.41c-1,0-1.45-.55-1.45-1.55v-1.5h-.75v-.93h.75V9.5h1v1.15h1.41Z"/><path d="M15,2.66a.36.36,0,0,1-.37.37.35.35,0,0,1-.36-.37.36.36,0,0,1,.36-.37A.37.37,0,0,1,15,2.66Zm-.1,3.23h-.53V3.49h.53Z"/><path d="M17.9,4.38V5.89h-.53V4.56c0-.41-.21-.63-.56-.63a.6.6,0,0,0-.62.63V5.89h-.52V3.49h.52v.29a.84.84,0,0,1,.73-.35A.93.93,0,0,1,17.9,4.38Z"/><path d="M20.32,4.09a1.52,1.52,0,0,0-.74-.2c-.29,0-.45.11-.45.28s.17.22.39.25l.25,0c.52.07.83.3.83.71S20.2,6,19.51,6a1.79,1.79,0,0,1-1-.31l.25-.39a1.21,1.21,0,0,0,.79.24c.36,0,.54-.11.54-.29s-.13-.22-.41-.26l-.25,0c-.53-.07-.82-.31-.82-.7s.38-.77,1-.77a1.84,1.84,0,0,1,1,.25Z"/><path d="M22.85,4h-.92V5c0,.32.17.45.38.45a1,1,0,0,0,.49-.16l.2.41a1.27,1.27,0,0,1-.73.24c-.55,0-.86-.29-.86-.93V4h-.48V3.49h.48V2.77h.52v.72h.92Z"/><path d="M25.79,5.89h-.52V5.6a.94.94,0,0,1-.76.35,1.21,1.21,0,0,1-1.2-1.26,1.21,1.21,0,0,1,1.2-1.26.94.94,0,0,1,.76.35V3.49h.52Zm-1.94-1.2a.73.73,0,1,0,1.45,0,.73.73,0,1,0-1.45,0Z"/><path d="M28.84,4.38V5.89h-.53V4.56c0-.41-.21-.63-.56-.63a.59.59,0,0,0-.62.63V5.89h-.52V3.49h.52v.29a.84.84,0,0,1,.73-.35A.93.93,0,0,1,28.84,4.38Z"/><path d="M31.24,4h-.92V5c0,.32.17.45.38.45a1,1,0,0,0,.48-.16l.21.41a1.3,1.3,0,0,1-.73.24c-.55,0-.87-.29-.87-.93V4h-.47V3.49h.47V2.77h.53v.72h.92Z"/><path d="M34.18,5.89h-.53V5.6A.9.9,0,0,1,32.9,6a1.21,1.21,0,0,1-1.2-1.26,1.21,1.21,0,0,1,1.2-1.26.9.9,0,0,1,.75.35V3.49h.53Zm-1.94-1.2a.72.72,0,1,0,1.44,0,.72.72,0,1,0-1.44,0Z"/><path class="cls-1" d="M5.8,12.92a1.29,1.29,0,0,0-1.29,1.29v1.37a1.29,1.29,0,0,0,2.58,0V14.21A1.29,1.29,0,0,0,5.8,12.92Z"/></g></g></svg>