<svg xmlns="http://www.w3.org/2000/svg" viewBox="0 0 119.6 30.61"><defs><style>.cls-1{fill:#0098ff;}.cls-2{fill:#1d1d1b;}</style></defs><title>sysserve logo with tagline blue and black</title><g id="Layer_2" data-name="Layer 2"><g id="Layer_1-2" data-name="Layer 1"><path class="cls-1" d="M8.72,16.87l2.73-2.12-1.21-1.56,3.89-.53,9.06-7C14.17-3.65.26-.54,0,8.35-.15,13.57,3.94,15.64,8.72,16.87Z"/><path class="cls-1" d="M14.54,13.33l-1.45,3.54-1.2-1.55L0,24.57c9,9.27,22.93,6.16,23.19-2.74C23.34,16.64,19.29,14.57,14.54,13.33Z"/><path class="cls-2" d="M40,10.63l-.26-.25A3.21,3.21,0,0,0,39,10a2.55,2.55,0,0,0-1.09-.25,1.79,1.79,0,0,0-1.17.34,1,1,0,0,0-.43.8,1,1,0,0,0,.41.81,3,3,0,0,0,1,.49q.63.16,1.35.42a12.9,12.9,0,0,1,1.36.57,2.58,2.58,0,0,1,1,1A2.81,2.81,0,0,1,42,15.67,3.1,3.1,0,0,1,40.8,18.1a4.37,4.37,0,0,1-3,1,5.51,5.51,0,0,1-1.54-.21,4.76,4.76,0,0,1-1.21-.48,6.15,6.15,0,0,1-.82-.56,3,3,0,0,1-.51-.49l-.17-.21,1.49-1.49.33.39a3.85,3.85,0,0,0,.94.61,3.2,3.2,0,0,0,1.49.38,2.11,2.11,0,0,0,1.37-.38,1.21,1.21,0,0,0,.46-1,1,1,0,0,0-.41-.8,3.05,3.05,0,0,0-1-.5q-.63-.16-1.35-.42a13.26,13.26,0,0,1-1.36-.56,2.63,2.63,0,0,1-1.05-1,3,3,0,0,1,.7-3.81,4.09,4.09,0,0,1,2.79-1,5.4,5.4,0,0,1,1.28.15,3.9,3.9,0,0,1,1,.37,4.57,4.57,0,0,1,.69.45,4.15,4.15,0,0,1,.43.36l.15.17Z"/><path class="cls-2" d="M47.55,18.88l-4.48-11h2.41l3.22,8,3.21-8h2.41L49.38,20a8.85,8.85,0,0,1-1.69,2.86,2.83,2.83,0,0,1-2.09.82,5.9,5.9,0,0,1-.86-.06,4.21,4.21,0,0,1-.59-.12L44,23.47V21.4a3.38,3.38,0,0,0,1.15.24,2.12,2.12,0,0,0,2-1.62Z"/><path class="cls-2" d="M61.65,10.63c-.06-.06-.15-.15-.27-.25a2.86,2.86,0,0,0-.71-.42,2.59,2.59,0,0,0-1.1-.25,1.83,1.83,0,0,0-1.17.34,1,1,0,0,0-.43.8,1,1,0,0,0,.42.81,2.87,2.87,0,0,0,1,.49q.63.16,1.35.42a11.9,11.9,0,0,1,1.35.57,2.61,2.61,0,0,1,1,1,2.81,2.81,0,0,1,.42,1.57,3.14,3.14,0,0,1-1.15,2.43,4.38,4.38,0,0,1-3,1,5.61,5.61,0,0,1-1.54-.21,4.53,4.53,0,0,1-1.2-.48,6.15,6.15,0,0,1-.82-.56,3,3,0,0,1-.51-.49l-.17-.21,1.49-1.49a3.82,3.82,0,0,0,.33.39,3.65,3.65,0,0,0,.94.61,3.19,3.19,0,0,0,1.48.38,2.14,2.14,0,0,0,1.38-.38,1.21,1.21,0,0,0,.46-1,1,1,0,0,0-.41-.8,3,3,0,0,0-1-.5q-.62-.16-1.35-.42a14,14,0,0,1-1.35-.56,2.63,2.63,0,0,1-1-1,3,3,0,0,1,.7-3.81,4.06,4.06,0,0,1,2.78-1,5.55,5.55,0,0,1,1.29.15,3.9,3.9,0,0,1,1,.37,4.57,4.57,0,0,1,.69.45A4.15,4.15,0,0,1,63,9l.15.17Z"/><path class="cls-2" d="M71.61,10.63c-.06-.06-.15-.15-.27-.25a2.86,2.86,0,0,0-.71-.42,2.55,2.55,0,0,0-1.09-.25,1.79,1.79,0,0,0-1.17.34,1,1,0,0,0-.44.8,1,1,0,0,0,.42.81,3,3,0,0,0,1,.49q.63.16,1.35.42a12.9,12.9,0,0,1,1.36.57,2.58,2.58,0,0,1,1,1,2.81,2.81,0,0,1,.42,1.57,3.1,3.1,0,0,1-1.15,2.43,4.37,4.37,0,0,1-3,1,5.51,5.51,0,0,1-1.54-.21,4.62,4.62,0,0,1-1.21-.48,6.15,6.15,0,0,1-.82-.56,3,3,0,0,1-.51-.49l-.17-.21,1.49-1.49a3.82,3.82,0,0,0,.33.39,3.85,3.85,0,0,0,.94.61,3.2,3.2,0,0,0,1.49.38,2.11,2.11,0,0,0,1.37-.38,1.21,1.21,0,0,0,.46-1,1,1,0,0,0-.41-.8,3.05,3.05,0,0,0-1-.5q-.63-.16-1.35-.42a13.26,13.26,0,0,1-1.36-.56,2.63,2.63,0,0,1-1-1,3,3,0,0,1,.7-3.81,4.09,4.09,0,0,1,2.79-1,5.47,5.47,0,0,1,1.28.15,3.9,3.9,0,0,1,1,.37,4.57,4.57,0,0,1,.69.45A4.15,4.15,0,0,1,73,9l.15.17Z"/><path class="cls-2" d="M77.66,14.18a3.27,3.27,0,0,0,1.15,2,3.37,3.37,0,0,0,2.3.86,3.86,3.86,0,0,0,1.8-.44,3.94,3.94,0,0,0,1.18-.85l.35-.43,1.49,1.49-.21.25a5.46,5.46,0,0,1-.6.55,6.29,6.29,0,0,1-1,.68,6.17,6.17,0,0,1-1.34.55,5.74,5.74,0,0,1-1.7.26,5.52,5.52,0,0,1-4-1.72,5.67,5.67,0,0,1-1.69-4.13,5.41,5.41,0,0,1,1.65-4,5.4,5.4,0,0,1,4-1.65,5.26,5.26,0,0,1,5.4,5.4l-.13,1.14Zm1.24-3.85a3.66,3.66,0,0,0-1.14,1.9h6.38a3.19,3.19,0,0,0-1-1.9,3.37,3.37,0,0,0-4.19,0Z"/><path class="cls-2" d="M94.05,9.71a2.72,2.72,0,0,0-2.09.84,3.39,3.39,0,0,0-.78,2.37v6H88.89v-11h2.29V9l.15-.14a3.83,3.83,0,0,1,.42-.33,7.92,7.92,0,0,1,.69-.42,5.48,5.48,0,0,1,.93-.33,4.46,4.46,0,0,1,1.14-.15h.57V9.82A4.65,4.65,0,0,0,94.05,9.71Z"/><path class="cls-2" d="M100.69,18.88l-4.48-11h2.4l3.22,8,3.21-8h2.41l-4.48,11Z"/><path class="cls-2" d="M110.87,14.18a3.27,3.27,0,0,0,1.15,2,3.35,3.35,0,0,0,2.3.86,3.86,3.86,0,0,0,1.8-.44,4.08,4.08,0,0,0,1.18-.85l.35-.43,1.49,1.49-.21.25a5.46,5.46,0,0,1-.6.55,6.29,6.29,0,0,1-1,.68,6.17,6.17,0,0,1-1.34.55,5.74,5.74,0,0,1-1.7.26,5.51,5.51,0,0,1-4-1.72,5.67,5.67,0,0,1-1.69-4.13,5.41,5.41,0,0,1,1.65-4,5.4,5.4,0,0,1,4-1.65,5.26,5.26,0,0,1,5.4,5.4l-.13,1.14Zm1.24-3.85a3.59,3.59,0,0,0-1.14,1.9h6.37a3.12,3.12,0,0,0-1-1.9,3.37,3.37,0,0,0-4.19,0Z"/><path class="cls-2" d="M34,28.78a.32.32,0,0,1,.23-.09.32.32,0,0,1,.24.09.36.36,0,0,1,.08.23.34.34,0,0,1-.08.23.32.32,0,0,1-.24.09.32.32,0,0,1-.23-.09.3.3,0,0,1-.08-.23A.31.31,0,0,1,34,28.78Z"/><path class="cls-2" d="M35.33,28.78a.32.32,0,0,1,.24-.09.3.3,0,0,1,.23.09.32.32,0,0,1,.09.23.31.31,0,0,1-.32.32.32.32,0,0,1-.24-.09.34.34,0,0,1-.08-.23A.36.36,0,0,1,35.33,28.78Z"/><path class="cls-2" d="M36.68,28.78a.34.34,0,0,1,.46,0,.32.32,0,0,1,.09.23.3.3,0,0,1-.09.23.34.34,0,0,1-.46,0,.3.3,0,0,1-.09-.23A.32.32,0,0,1,36.68,28.78Z"/><path class="cls-2" d="M38.54,26.68a.13.13,0,0,1,.05-.06l.13-.14.22-.16a1,1,0,0,1,.31-.13,1.21,1.21,0,0,1,.38-.06,1.4,1.4,0,0,1,1,.47,1.58,1.58,0,0,1,.44,1.13,1.56,1.56,0,0,1-.44,1.13,1.38,1.38,0,0,1-1,.47,1.21,1.21,0,0,1-.38-.06,1.11,1.11,0,0,1-.31-.13L38.72,29a1.56,1.56,0,0,1-.13-.13l-.05-.06v.48h-.45V24.78h.45Zm.34,1.88a1,1,0,0,0,.75.36,1,1,0,0,0,.71-.35,1.26,1.26,0,0,0,0-1.68.94.94,0,0,0-.71-.34,1,1,0,0,0-.75.35,1.16,1.16,0,0,0-.34.83A1.15,1.15,0,0,0,38.88,28.56Z"/><path class="cls-2" d="M42.12,27.89a1.11,1.11,0,0,0,1.09,1,1.19,1.19,0,0,0,.53-.13,1.05,1.05,0,0,0,.35-.26l.11-.12.29.28-.06.07-.15.16a2.48,2.48,0,0,1-.26.19,2.18,2.18,0,0,1-.36.15,1.41,1.41,0,0,1-.45.07,1.49,1.49,0,0,1-1.09-.47,1.64,1.64,0,0,1,0-2.26,1.39,1.39,0,0,1,1.06-.47,1.43,1.43,0,0,1,1,.43,1.55,1.55,0,0,1,.42,1.11l0,.23Zm.35-1.06a1.1,1.1,0,0,0-.35.68H44.2a1.07,1.07,0,0,0-.33-.69,1,1,0,0,0-1.4,0Z"/><path class="cls-2" d="M47.1,30.61h-.44V26.19h.44v.49l0-.06.14-.14a1.25,1.25,0,0,1,.22-.16.93.93,0,0,1,.3-.13,1.21,1.21,0,0,1,.38-.06,1.36,1.36,0,0,1,1,.47,1.59,1.59,0,0,1,.45,1.13,1.6,1.6,0,0,1-.44,1.13,1.4,1.4,0,0,1-1,.47,1.26,1.26,0,0,1-.38-.06,1,1,0,0,1-.3-.13,1,1,0,0,1-.22-.16l-.14-.13,0-.06Zm.34-2.05a1,1,0,0,0,.75.36,1,1,0,0,0,.72-.35,1.29,1.29,0,0,0,0-1.68,1,1,0,0,0-.72-.34,1.05,1.05,0,0,0-.75.35,1.21,1.21,0,0,0-.34.83A1.19,1.19,0,0,0,47.44,28.56Z"/><path class="cls-2" d="M52.06,26.58h-.19a.94.94,0,0,0-.68.27,1,1,0,0,0-.28.72v1.7h-.45V26.19h.45v.42l0-.05.11-.12a1.53,1.53,0,0,1,.21-.14.81.81,0,0,1,.28-.12,1.65,1.65,0,0,1,.38-.05h.13Z"/><path class="cls-2" d="M52.9,26.59a1.57,1.57,0,0,1,2.22,0,1.64,1.64,0,0,1,0,2.28,1.57,1.57,0,0,1-2.22,0,1.64,1.64,0,0,1,0-2.28Zm1.9.3a1.09,1.09,0,0,0-1.58,0,1.23,1.23,0,0,0,0,1.68,1.07,1.07,0,0,0,1.58,0,1.23,1.23,0,0,0,0-1.68Z"/><path class="cls-2" d="M58.71,24.78h.45v4.49h-.45v-.48l-.05.05a.72.72,0,0,1-.13.14,1.12,1.12,0,0,1-.22.16,1,1,0,0,1-.31.13,1.21,1.21,0,0,1-.38.06,1.38,1.38,0,0,1-1-.47,1.56,1.56,0,0,1-.44-1.13,1.58,1.58,0,0,1,.44-1.13,1.38,1.38,0,0,1,1-.47,1.21,1.21,0,0,1,.38.06,1.26,1.26,0,0,1,.31.13l.22.16a.79.79,0,0,1,.13.14l.05.06Zm-.34,2.12a1,1,0,0,0-.75-.35.93.93,0,0,0-.71.34,1.26,1.26,0,0,0,0,1.68.94.94,0,0,0,.71.35,1,1,0,0,0,.75-.36,1.15,1.15,0,0,0,.34-.83A1.16,1.16,0,0,0,58.37,26.9Z"/><path class="cls-2" d="M62.45,28.85l0,0a1.29,1.29,0,0,1-.12.12,1.49,1.49,0,0,1-.2.15,1.09,1.09,0,0,1-.28.11,1.36,1.36,0,0,1-.36,0,1.17,1.17,0,0,1-.89-.37,1.35,1.35,0,0,1-.35-1v-1.8h.44V28a1,1,0,0,0,.25.66.81.81,0,0,0,.62.27.88.88,0,0,0,.66-.29,1,1,0,0,0,.27-.74v-1.7h.45v3.08h-.45Z"/><path class="cls-2" d="M64.18,26.6a1.42,1.42,0,0,1,1.08-.47,1.53,1.53,0,0,1,.67.15,1.56,1.56,0,0,1,.44.31l.14.15-.32.32,0-.06L66,26.88l-.19-.16a1.29,1.29,0,0,0-.26-.12.91.91,0,0,0-.33-.05,1,1,0,0,0-.77.34,1.26,1.26,0,0,0,0,1.68,1,1,0,0,0,.77.35,1.14,1.14,0,0,0,.51-.13,1.17,1.17,0,0,0,.35-.26l.1-.12.32.28-.06.07-.16.16a2.61,2.61,0,0,1-.27.19,2.44,2.44,0,0,1-.35.15,1.35,1.35,0,0,1-.44.07,1.45,1.45,0,0,1-1.08-.47,1.62,1.62,0,0,1,0-2.26Z"/><path class="cls-2" d="M67.53,25.17h.41v1h.67v.42h-.67v1.83q0,.48.42.48a.69.69,0,0,0,.2,0l.16,0,0,0v.42a1,1,0,0,1-.43.09.83.83,0,0,1-.62-.23.93.93,0,0,1-.23-.66V26.61h-.57v-.42h.35c.17,0,.26-.1.26-.31Z"/><path class="cls-2" d="M69.56,25a.28.28,0,0,1,.2-.08.27.27,0,0,1,.29.29.28.28,0,0,1-.08.2.29.29,0,0,1-.21.09.31.31,0,0,1-.29-.29A.29.29,0,0,1,69.56,25Zm0,1.23H70v3.08h-.45Z"/><path class="cls-2" d="M71.84,29.27l-1.25-3.08h.48l1,2.47,1-2.47h.48l-1.25,3.08Z"/><path class="cls-2" d="M74.36,27.89a1.08,1.08,0,0,0,.35.72,1.05,1.05,0,0,0,.74.31,1.26,1.26,0,0,0,.54-.13,1.17,1.17,0,0,0,.35-.26l.11-.12.29.28-.06.07-.16.16a1.74,1.74,0,0,1-.26.19,2.18,2.18,0,0,1-.36.15,1.33,1.33,0,0,1-.45.07,1.45,1.45,0,0,1-1.08-.47,1.64,1.64,0,0,1,0-2.26,1.45,1.45,0,0,1,2.1,0,1.55,1.55,0,0,1,.42,1.11l0,.23Zm.36-1.06a1.17,1.17,0,0,0-.36.68h2.09a1.14,1.14,0,0,0-.34-.69,1,1,0,0,0-1.39,0Z"/></g></g></svg>